<svg width="40" height="40" viewBox="0 0 40 40" fill="none" xmlns="http://www.w3.org/2000/svg">
<path d="M6.67501 26.8248C5.40838 28.1492 4.58683 29.836 4.32501 31.6498C4.1655 32.5572 4.10681 33.4795 4.15001 34.3998V35.8498H6.15001C6.88777 35.8475 7.62392 35.7806 8.35001 35.6498C10.1668 35.3978 11.8565 34.5749 13.175 33.2998C13.9485 32.4302 14.346 31.2895 14.2804 30.1275C14.2148 28.9655 13.6915 27.8768 12.825 27.0998C12.0395 26.2588 10.9557 25.7591 9.80611 25.7077C8.65648 25.6563 7.53246 26.0573 6.67501 26.8248ZM11.025 31.1498C10.1595 31.9696 9.05696 32.4946 7.87501 32.6498H7.32501V32.0998C7.48018 30.9178 8.00522 29.8153 8.82501 28.9498C8.99422 28.8127 9.2074 28.7417 9.42501 28.7498C9.64759 28.7587 9.86616 28.812 10.0679 28.9064C10.2697 29.0009 10.4506 29.1346 10.6 29.2998C10.9001 29.4902 11.113 29.7912 11.1925 30.1375C11.2721 30.4838 11.2119 30.8476 11.025 31.1498ZM36.625 5.5998C36.6123 5.01369 36.3737 4.45513 35.9592 4.04059C35.5447 3.62606 34.9861 3.38754 34.4 3.3748C31.4732 3.13584 28.5283 3.48859 25.7408 4.41204C22.9533 5.33548 20.3802 6.81072 18.175 8.7498L14.1 13.4998L8.10001 12.2498C7.69078 12.1606 7.26571 12.1757 6.86383 12.2937C6.46196 12.4116 6.09615 12.6286 5.80001 12.9248L4.10001 14.6248C3.84054 14.8894 3.64314 15.2083 3.52208 15.5585C3.40101 15.9087 3.35932 16.2815 3.40001 16.6498C3.43686 17.0228 3.5571 17.3827 3.75184 17.7029C3.94657 18.0231 4.21081 18.2955 4.52501 18.4998L9.67501 21.7998L10 21.9998L18 30.1248L18.2 30.3248L21.5 35.4748C21.7043 35.789 21.9767 36.0532 22.2969 36.248C22.6171 36.4427 22.977 36.5629 23.35 36.5998H23.625C24.2809 36.597 24.9094 36.3367 25.375 35.8748L27.075 34.1748C27.3712 33.8787 27.5882 33.5128 27.7061 33.111C27.8241 32.7091 27.8392 32.284 27.75 31.8748L26.5 25.8998L31.1 21.9498C33.0767 19.7384 34.5852 17.1498 35.5347 14.3399C36.4843 11.53 36.8551 8.55688 36.625 5.5998ZM7.77501 15.3748L11.075 16.0748L9.47501 17.9498L6.97501 16.2748L7.77501 15.3748ZM23.725 33.1248L22.05 30.6248L23.925 29.0248L24.625 32.3248L23.725 33.1248ZM29 19.6498L19.8 27.4998L12.5 20.1998L20.35 10.9998C23.9872 7.85693 28.6999 6.24422 33.5 6.4998C33.7451 11.2985 32.1337 16.0074 29 19.6498Z" fill="#FFE243"/>
<path d="M27.825 16.5749C28.0982 16.2881 28.3113 15.9495 28.4519 15.5792C28.5925 15.2089 28.6577 14.8142 28.6437 14.4184C28.6298 14.0225 28.5369 13.6334 28.3705 13.2739C28.2042 12.9144 27.9677 12.5918 27.675 12.3249C27.4166 12.0185 27.0975 11.769 26.7379 11.5921C26.3782 11.4152 25.9858 11.3148 25.5854 11.2972C25.185 11.2796 24.7853 11.3452 24.4115 11.4898C24.0377 11.6345 23.698 11.855 23.4137 12.1376C23.1294 12.4201 22.9068 12.7585 22.7599 13.1314C22.613 13.5043 22.545 13.9036 22.5601 14.3041C22.5753 14.7046 22.6733 15.0976 22.848 15.4583C23.0226 15.8191 23.2702 16.1397 23.575 16.3999C23.842 16.6914 24.164 16.9272 24.5224 17.0938C24.8809 17.2604 25.2687 17.3546 25.6636 17.3708C26.0586 17.3871 26.4528 17.3252 26.8237 17.1886C27.1947 17.052 27.5349 16.8434 27.825 16.5749Z" fill="#FFE243"/>
</svg>
