<svg width="40" height="43" viewBox="0 0 40 43" fill="none" xmlns="http://www.w3.org/2000/svg">
<path d="M37.8612 0C37.3118 0.00718361 36.7867 0.228655 36.3981 0.617208C36.0098 1.00579 35.7882 1.53072 35.781 2.0802V8.82003L33.4512 6.49022C31.0409 4.05952 28.0493 2.28533 24.7607 1.3361C21.4717 0.386861 17.9948 0.294113 14.6601 1.06667C11.3253 1.83923 8.24336 3.45144 5.70698 5.75016C3.17059 8.04892 1.26393 10.9579 0.168058 14.2008C0.0539524 14.4652 -0.00326747 14.7506 0.00014405 15.0385C0.00355557 15.3264 0.0674866 15.6104 0.187833 15.872C0.308152 16.1335 0.482168 16.367 0.698591 16.5567C0.914987 16.7467 1.16894 16.889 1.44391 16.9744C1.67334 17.0143 1.90791 17.0143 2.13731 16.9744C2.57124 16.97 2.99324 16.8318 3.34568 16.5786C3.69812 16.3254 3.96386 15.9698 4.10656 15.5599C4.88142 13.2581 6.18249 11.1687 7.90639 9.45796C10.9007 6.47535 14.9549 4.80068 19.181 4.80068C23.4074 4.80068 27.4616 6.47535 30.4557 9.45796L32.7855 11.7878H26.1012C25.5495 11.7878 25.0203 12.007 24.6303 12.3971C24.2401 12.7872 24.021 13.3163 24.021 13.868C24.021 14.4197 24.2401 14.9488 24.6303 15.3389C25.0203 15.729 25.5495 15.9482 26.1012 15.9482H37.8612C38.1355 15.9518 38.4076 15.9006 38.6617 15.7974C38.9157 15.6942 39.1465 15.5411 39.3404 15.3472C39.5345 15.1533 39.6876 14.9225 39.7908 14.6684C39.894 14.4144 39.9453 14.1422 39.9414 13.868V2.0802C39.9414 1.5285 39.7223 0.999382 39.332 0.609275C38.9421 0.219169 38.4129 0 37.8612 0Z" fill="#3FF1B2"/>
<path d="M38.5546 26.1549C38.2875 26.0501 38.0021 26.0007 37.7153 26.0099C37.4285 26.0193 37.1467 26.087 36.8868 26.209C36.6272 26.331 36.3954 26.505 36.2051 26.7196C36.0148 26.9346 35.8706 27.1859 35.781 27.4585C35.0061 29.7603 33.7052 31.8497 31.9812 33.5604C28.9871 36.5432 24.9329 38.2176 20.7065 38.2176C16.4804 38.2176 12.4261 36.5432 9.43187 33.5604L7.10205 31.2306H13.9529C14.5045 31.2306 15.0337 31.0115 15.4236 30.6212C15.8139 30.2313 16.033 29.7021 16.033 29.1504C16.033 28.5987 15.8139 28.0695 15.4236 27.6796C15.0337 27.2893 14.5045 27.0702 13.9529 27.0702H2.19278C1.91858 27.0663 1.64641 27.1176 1.39235 27.2208C1.13829 27.3243 0.90747 27.4774 0.713568 27.6712C0.519638 27.8651 0.366563 28.0959 0.263329 28.3499C0.160124 28.604 0.108868 28.8761 0.112585 29.1504V40.9105C0.112585 41.4621 0.331754 41.9913 0.72186 42.3813C1.11199 42.7715 1.64109 42.9907 2.19278 42.9907C2.74451 42.9907 3.2736 42.7715 3.6637 42.3813C4.05384 41.9913 4.27298 41.4621 4.27298 40.9105V34.1706L6.6028 36.5004C9.01305 38.9312 12.0047 40.7052 15.2936 41.6546C18.5822 42.6037 22.0592 42.6964 25.3939 41.9239C28.7289 41.1515 31.8106 39.5392 34.3471 37.2404C36.8835 34.9417 38.7901 32.0327 39.8859 28.7898C39.9763 28.5297 40.0138 28.254 39.9955 27.9791C39.9772 27.7043 39.9037 27.4358 39.7794 27.19C39.6552 26.944 39.4826 26.7257 39.2721 26.5479C39.0619 26.3702 38.8178 26.2365 38.5546 26.1549Z" fill="#3FF1B2"/>
</svg>
