<svg width="40" height="37" viewBox="0 0 40 37" fill="none" xmlns="http://www.w3.org/2000/svg">
<path fill-rule="evenodd" clip-rule="evenodd" d="M20.886 2.7907C15.7695 2.7907 11.65 6.88527 11.65 11.9015C11.65 12.7613 11.7704 13.5916 11.995 14.3779C12.92 14.6448 13.7859 15.0491 14.5683 15.5667C15.211 15.9918 15.3874 16.8575 14.9622 17.5003C14.537 18.1431 13.6713 18.3194 13.0286 17.8941C12.3201 17.4255 11.5147 17.0893 10.648 16.9211C10.2353 16.8411 9.80772 16.7989 9.36876 16.7989C5.72019 16.7989 2.7907 19.7176 2.7907 23.2832C2.7907 26.8487 5.72019 29.7674 9.36876 29.7674C10.1394 29.7674 10.7641 30.3922 10.7641 31.1628C10.7641 31.9334 10.1394 32.5581 9.36876 32.5581C4.21016 32.5581 0 28.4212 0 23.2832C0 18.2521 4.03697 14.1806 9.04839 14.0135C8.92415 13.3275 8.85935 12.6216 8.85935 11.9015C8.85935 5.31297 14.2595 0 20.886 0C26.7615 0 31.6696 4.17431 32.7096 9.71399C36.9885 11.5303 40 15.7382 40 20.6566C40 26.3756 35.9299 31.1336 30.5243 32.2897C29.7708 32.4508 29.0292 31.9704 28.8681 31.2169C28.707 30.4633 29.1872 29.7217 29.9408 29.5606C34.1077 28.6694 37.2093 25.0102 37.2093 20.6566C37.2093 16.6813 34.6246 13.2853 30.9998 12.0458C30.0536 11.7223 29.0359 11.5458 27.9734 11.5458C26.8895 11.5458 25.8521 11.7295 24.8899 12.0656C24.1622 12.3197 23.3665 11.9359 23.1124 11.2084C22.8582 10.4809 23.242 9.68512 23.9695 9.431C25.224 8.99282 26.5723 8.75513 27.9734 8.75513C28.5232 8.75513 29.0647 8.79172 29.5957 8.86264C28.3293 5.33267 24.9157 2.7907 20.886 2.7907ZM24.6832 28.2919C25.2413 28.8234 25.2629 29.7066 24.7314 30.2646L19.4158 35.846C19.1524 36.1226 18.7872 36.2791 18.4054 36.2791C18.0234 36.2791 17.6582 36.1226 17.395 35.846L15.2687 33.6134C14.7372 33.0554 14.7587 32.1723 15.3168 31.6407C15.8748 31.1092 16.758 31.1308 17.2895 31.6889L18.4054 32.8605L22.7105 28.3401C23.242 27.782 24.1252 27.7604 24.6832 28.2919Z" fill="#FFE243"/>
</svg>
