<svg width="40" height="40" viewBox="0 0 40 40" fill="none" xmlns="http://www.w3.org/2000/svg">
<path fill-rule="evenodd" clip-rule="evenodd" d="M0.83683 0.83683C1.95263 -0.278943 3.76166 -0.278943 4.87747 0.83683L20 15.9595L35.1226 0.83683C36.2384 -0.278943 38.0475 -0.278943 39.1632 0.83683C40.2789 1.95263 40.2789 3.76166 39.1632 4.87747L24.0406 20L39.1632 35.1226C40.2789 36.2384 40.2789 38.0475 39.1632 39.1632C38.0475 40.2789 36.2384 40.2789 35.1226 39.1632L20 24.0406L4.87747 39.1632C3.76166 40.2789 1.95263 40.2789 0.83683 39.1632C-0.278943 38.0475 -0.278943 36.2384 0.83683 35.1226L15.9595 20L0.83683 4.87747C-0.278943 3.76166 -0.278943 1.95263 0.83683 0.83683Z" fill="#F7695F"/>
</svg>
