<svg width="275" height="160" viewBox="0 0 275 160" fill="none" xmlns="http://www.w3.org/2000/svg">
<path fill-rule="evenodd" clip-rule="evenodd" d="M271.466 21.3209C270.279 23.9919 267.516 29.8384 265.325 34.3132C263.134 38.7882 258.965 47.6275 256.061 53.9562C250.016 67.1229 243.069 80.8564 242.11 81.532C241.752 81.7845 239.083 81.3707 236.18 80.6127L233.84 80.0014C232.251 79.5863 231.347 77.9118 231.87 76.3551C236.533 62.4872 246.205 38.5079 252.49 25.2338C255.859 18.1178 258.938 9.02615 258.031 8.86963C257.778 8.82595 254.159 10.3331 249.989 12.2196L247.104 13.5242C245.493 14.2526 245.66 16.5926 247.358 17.0851C250.081 17.8743 252.277 18.7123 252.236 18.9458C252.196 19.18 250.846 21.4798 249.238 24.0571C222.419 67.0226 184.111 104.272 143.067 127.294C109.392 146.182 77.7085 157.095 49.6035 159.485C36.7279 160.58 27.0017 160.004 13.2527 157.332C4.87467 155.704 0.594086 154.623 0.11433 154.011C-0.72717 152.938 2.98203 153.357 14.4522 155.628C32.8522 159.273 53.4535 155.283 89.3141 141.13C144.132 119.495 188.552 82.4214 230.601 23.2106L231.036 22.5975C231.42 22.0569 230.853 21.3524 230.243 21.6121C229.065 22.1134 224.403 24.4332 219.88 26.7667C215.358 29.101 210.929 31.1277 210.037 31.2718C208.674 31.4913 197.292 28.1905 196.668 27.3937C195.711 26.1741 245.911 2.71043 254.703 0.268942C258.519 -0.791076 269.601 1.47568 271.543 3.71299C274.882 7.56366 274.856 13.6986 271.466 21.3209Z" fill="url(#paint0_linear_156_1206)"/>
<defs>
<linearGradient id="paint0_linear_156_1206" x1="242.186" y1="196.913" x2="-0.225933" y2="155.051" gradientUnits="userSpaceOnUse">
<stop stop-color="#FFE243"/>
<stop offset="1" stop-color="#3FF1B2"/>
</linearGradient>
</defs>
</svg>
