<svg width="22" height="24" viewBox="0 0 22 24" fill="none" xmlns="http://www.w3.org/2000/svg">
<mask id="mask0_131_545" style="mask-type:luminance" maskUnits="userSpaceOnUse" x="0" y="9" width="22" height="15">
<path fill-rule="evenodd" clip-rule="evenodd" d="M0 9.11096H21.875V23.625H0V9.11096Z" fill="white"/>
</mask>
<g mask="url(#mask0_131_545)">
<path fill-rule="evenodd" clip-rule="evenodd" d="M17.664 17.0431C17.664 21.8457 10.6272 22.111 10.3496 22.1204C3.17392 22.1204 3.03894 17.2464 3.03607 17.0431V10.8188C3.03607 10.6974 3.10117 10.624 3.12223 10.6155H17.5731C17.5989 10.624 17.664 10.6974 17.664 10.8188V17.0431ZM20.308 12.7364C20.3243 12.7665 20.3434 12.8192 20.3434 12.8936V15.6665C20.3434 15.7408 20.3243 15.7926 20.308 15.8227H19.1956V12.7364H20.308ZM19.1746 17.3282H20.3855C21.2068 17.3282 21.875 16.583 21.875 15.6665V12.8936C21.875 11.9771 21.2068 11.2318 20.3855 11.2318H19.1956V10.8188C19.1956 9.87689 18.47 9.11096 17.5779 9.11096H3.12223C2.23006 9.11096 1.50541 9.87689 1.50541 10.8188V17.0431C1.50541 17.0883 1.55423 20.1915 4.44516 22.1204H-0.000366211V23.625H21.785V22.1204H16.0281C17.732 21.1484 19.0683 19.6222 19.1746 17.3282V17.3282Z" fill="#4A60B2"/>
</g>
<path fill-rule="evenodd" clip-rule="evenodd" d="M6.56436 5.82255C6.52224 6.14341 6.40832 6.4511 6.2274 6.73621L5.82248 7.37417L7.12149 8.17209L7.52641 7.53319C7.82507 7.06366 8.01174 6.55367 8.08354 6.01827C8.2367 4.8675 7.80402 3.95572 7.53215 3.51442L7.46514 3.42221C7.37133 3.31118 7.06884 2.90845 7.11479 2.36271C7.14733 1.96657 7.34644 1.68146 7.46227 1.54691L7.95622 0.971053L6.78549 0L6.29154 0.574916C5.88757 1.04539 5.63773 1.6363 5.58795 2.23944C5.50275 3.26507 5.98904 4.01594 6.24655 4.33492C6.41407 4.62097 6.65243 5.16107 6.56436 5.82255" fill="#4A60B2"/>
<path fill-rule="evenodd" clip-rule="evenodd" d="M10.3462 5.8221C10.3031 6.14484 10.1892 6.45159 10.0083 6.73481L9.60238 7.37277L10.9004 8.17257L11.3073 7.53462C11.605 7.06603 11.7926 6.55604 11.8644 6.01782C12.0185 4.86516 11.5849 3.95433 11.313 3.51303L11.247 3.4227C11.1531 3.31167 10.8507 2.90706 10.8956 2.3632C10.9282 1.96706 11.1273 1.68101 11.2441 1.54552L11.7371 0.969659L10.5654 0.000488281L10.0714 0.576345C9.66843 1.04682 9.41954 1.63773 9.36881 2.23993C9.28457 3.26368 9.77086 4.01643 10.0274 4.33447C10.1959 4.61958 10.4342 5.15874 10.3462 5.8221" fill="#4A60B2"/>
<path fill-rule="evenodd" clip-rule="evenodd" d="M14.1266 5.82255C14.0845 6.14436 13.9706 6.45204 13.7897 6.73527L13.3838 7.37323L14.6818 8.17209L15.0887 7.53413C15.3864 7.06554 15.574 6.55555 15.6448 6.01827C15.799 4.86844 15.3663 3.95572 15.0944 3.51442L15.0274 3.42221C14.9336 3.31118 14.6311 2.90845 14.677 2.36271C14.7096 1.96657 14.9087 1.68146 15.0245 1.54691L15.5185 0.971053L14.3477 0L13.8538 0.574916C13.4498 1.04539 13.2 1.6363 13.1502 2.23944C13.065 3.26507 13.5513 4.01594 13.8088 4.33492C13.9773 4.62097 14.2147 5.16107 14.1266 5.82255" fill="#4A60B2"/>
</svg>
