<?xml version="1.0" encoding="utf-8" ?>
<svg xmlns="http://www.w3.org/2000/svg" xmlns:xlink="http://www.w3.org/1999/xlink" width="28" height="30">
	<path fill="#3FF1B2" d="M23.539579 21.535643C22.054613 21.535643 20.846973 20.320898 20.846973 18.828558C20.846973 17.33733 22.054613 16.122585 23.539579 16.122585C25.024544 16.122585 26.232183 17.33733 26.232183 18.828558C26.232183 20.320898 25.024544 21.535643 23.539579 21.535643M16.692606 25.517433C16.692606 27.009771 15.484965 28.223406 14 28.223406C12.515035 28.223406 11.307395 27.009771 11.307395 25.517433C11.307395 24.025095 12.515035 22.811459 14 22.811459C15.484965 22.811459 16.692606 24.025095 16.692606 25.517433M4.4604216 21.535643C2.9754558 21.535643 1.7678163 20.320898 1.7678163 18.828558C1.7678163 17.33733 2.9754558 16.122585 4.4604216 16.122585C5.9453869 16.122585 7.1530266 17.33733 7.1530266 18.828558C7.1530266 20.320898 5.9453869 21.535643 4.4604216 21.535643M23.539579 14.347102C22.201563 14.347102 21.013811 14.954474 20.196196 15.893848C18.654881 14.79125 14.883908 11.329114 14.883908 3.8374417L14.883908 3.4010661L18.510141 7.0464134L19.760872 5.7905841L14 0L8.2391291 5.7894735L9.4898586 7.0464134L13.116092 3.4010661L13.116092 3.8374417C13.116092 11.329114 9.3462238 14.79236 7.8049088 15.893848C6.9861889 14.954474 5.7984376 14.347102 4.4604216 14.347102C2.000947 14.347102 0 16.356873 0 18.828558C0 21.301355 2.000947 23.312237 4.4604216 23.312237C6.9198956 23.312237 8.9208431 21.301355 8.9208431 18.828558C8.9208431 18.342216 8.8236132 17.881413 8.6799784 17.442816C9.7163601 16.726627 11.673112 15.064402 13.116092 12.09749L13.116092 21.124805C11.078684 21.537863 9.5395784 23.349989 9.5395784 25.517433C9.5395784 27.989119 11.540525 30 14 30C16.459475 30 18.460421 27.989119 18.460421 25.517433C18.460421 23.349989 16.921316 21.537863 14.883908 21.124805L14.883908 12.09749C16.327993 15.064402 18.284744 16.726627 19.320023 17.442816C19.176388 17.881413 19.079157 18.342216 19.079157 18.828558C19.079157 21.301355 21.080105 23.312237 23.539579 23.312237C25.999052 23.312237 28 21.301355 28 18.828558C28 16.356873 25.999052 14.347102 23.539579 14.347102" fill-rule="evenodd"/>
</svg>
