<svg width="27" height="28" viewBox="0 0 27 28" fill="none" xmlns="http://www.w3.org/2000/svg">
<mask id="mask0_64_701" style="mask-type:luminance" maskUnits="userSpaceOnUse" x="0" y="0" width="27" height="28">
<path fill-rule="evenodd" clip-rule="evenodd" d="M0 0H27V28H0V0Z" fill="white"/>
</mask>
<g mask="url(#mask0_64_701)">
<path fill-rule="evenodd" clip-rule="evenodd" d="M22.3163 20.1775V12.8729C23.9692 13.2754 25.1994 14.7606 25.1994 16.5246C25.1994 18.2898 23.9692 19.775 22.3163 20.1775ZM14.8337 26.2104H12.1677C11.623 26.2104 11.1804 25.7706 11.1804 25.2304C11.1804 24.6891 11.623 24.2492 12.1677 24.2492H14.8337C15.3784 24.2492 15.821 24.6891 15.821 25.2304C15.821 25.7706 15.3784 26.2104 14.8337 26.2104ZM4.68513 20.1775C3.03224 19.775 1.8008 18.2898 1.8008 16.5246C1.8008 14.7606 3.03224 13.2754 4.68513 12.8729V20.1775ZM24.1018 11.6619V10.5337C24.1018 4.72598 19.3463 -0.000244141 13.5001 -0.000244141C7.65515 -0.000244141 2.89959 4.72598 2.89959 10.5337V11.6619C1.17275 12.6069 0 14.4316 0 16.5246C0 19.5848 2.50633 22.0745 5.58553 22.0745H6.48593V10.9759H5.58553C5.28383 10.9759 4.98917 11.0062 4.70039 11.0517V10.5337C4.70039 5.71183 8.64829 1.78944 13.5001 1.78944C18.3531 1.78944 22.301 5.71183 22.301 10.5337V11.0517C22.0122 11.0062 21.7176 10.9759 21.4159 10.9759H20.5155V22.0745H21.4159C21.6518 22.0745 21.8843 22.0547 22.1132 22.0267C21.7246 23.7837 20.1645 24.2469 19.7759 24.3356H17.4703C17.0947 23.2459 16.0557 22.4595 14.8337 22.4595H12.1677C10.6299 22.4595 9.37965 23.7021 9.37965 25.2304C9.37965 26.7576 10.6299 28.0001 12.1677 28.0001H14.8337C16.0557 28.0001 17.0947 27.2138 17.4703 26.1241H19.9473L20.026 26.1112C21.3631 25.8756 23.8529 24.5922 23.9891 21.4457C25.7758 20.5193 27.0002 18.6632 27.0002 16.5246C27.0002 14.4316 25.8287 12.6069 24.1018 11.6619Z" fill="#00526E"/>
</g>
</svg>
