<?xml version="1.0" encoding="utf-8" ?>
<svg xmlns="http://www.w3.org/2000/svg" xmlns:xlink="http://www.w3.org/1999/xlink" width="27" height="28">
	<path fill="#80B8FF" transform="translate(-0.000234604 -0.000349998)" d="M22.31628 20.177752L22.31628 12.873161C23.969166 13.275666 25.199436 14.760851 25.199436 16.524874C25.199436 18.290062 23.969166 19.775248 22.31628 20.177752L22.31628 20.177752ZM14.833694 26.210661L12.167714 26.210661C11.623014 26.210661 11.180445 25.770823 11.180445 25.230648C11.180445 24.689308 11.623014 24.24947 12.167714 24.24947L14.833694 24.24947C15.378394 24.24947 15.820964 24.689308 15.820964 25.230648C15.820964 25.770823 15.378394 26.210661 14.833694 26.210661L14.833694 26.210661ZM4.6851277 20.177752C3.0322437 19.775248 1.8007983 18.290062 1.8007983 16.524874C1.8007983 14.760851 3.0322437 13.275666 4.6851277 12.873161L4.6851277 20.177752ZM24.101818 11.662146L24.101818 10.533965C24.101818 4.7262259 19.346254 0 13.500117 0C7.6551538 0 2.8995905 4.7262259 2.8995905 10.533965L2.8995905 11.662146C1.1727493 12.607158 0 14.431847 0 16.524874C0 19.585077 2.5063262 22.074776 5.5855269 22.074776L6.4859262 22.074776L6.4859262 10.976137L5.5855269 10.976137C5.2838287 10.976137 4.9891739 11.006471 4.7003889 11.051971L4.7003889 10.533965C4.7003889 5.7120714 8.6482925 1.7896891 13.500117 1.7896891C18.353117 1.7896891 22.30102 5.7120714 22.30102 10.533965L22.30102 11.051971C22.012236 11.006471 21.717581 10.976137 21.415882 10.976137L20.515482 10.976137L20.515482 22.074776L21.415882 22.074776C21.65184 22.074776 21.884277 22.054943 22.113192 22.026941C21.724625 23.783964 20.16448 24.247137 19.775911 24.335804L17.470325 24.335804C17.094671 23.246124 16.055748 22.459782 14.833694 22.459782L12.167714 22.459782C10.629875 22.459782 9.3796473 23.702297 9.3796473 25.230648C9.3796473 26.757835 10.629875 28.000351 12.167714 28.000351L14.833694 28.000351C16.055748 28.000351 17.094671 27.214006 17.470325 26.124327L19.947304 26.124327L20.025957 26.111492C21.363056 25.875824 23.852947 24.592474 23.989122 21.445934C25.775833 20.51959 27.000235 18.663401 27.000235 16.524874C27.000235 14.431847 25.828659 12.607158 24.101818 11.662146L24.101818 11.662146Z" fill-rule="evenodd"/>
</svg>
