<svg width="28" height="30" viewBox="0 0 28 30" fill="none" xmlns="http://www.w3.org/2000/svg">
<path fill-rule="evenodd" clip-rule="evenodd" d="M23.5396 21.5356C22.0546 21.5356 20.847 20.3209 20.847 18.8286C20.847 17.3373 22.0546 16.1226 23.5396 16.1226C25.0245 16.1226 26.2322 17.3373 26.2322 18.8286C26.2322 20.3209 25.0245 21.5356 23.5396 21.5356ZM16.6926 25.5174C16.6926 27.0098 15.485 28.2234 14 28.2234C12.515 28.2234 11.3074 27.0098 11.3074 25.5174C11.3074 24.0251 12.515 22.8115 14 22.8115C15.485 22.8115 16.6926 24.0251 16.6926 25.5174ZM4.46042 21.5356C2.97546 21.5356 1.76782 20.3209 1.76782 18.8286C1.76782 17.3373 2.97546 16.1226 4.46042 16.1226C5.94539 16.1226 7.15303 17.3373 7.15303 18.8286C7.15303 20.3209 5.94539 21.5356 4.46042 21.5356ZM23.5396 14.3471C22.2016 14.3471 21.0138 14.9545 20.1962 15.8938C18.6549 14.7913 14.8839 11.3291 14.8839 3.83744V3.40107L18.5101 7.04641L19.7609 5.79058L14 0L8.23913 5.78947L9.48986 7.04641L13.1161 3.40107V3.83744C13.1161 11.3291 9.34622 14.7924 7.80491 15.8938C6.98619 14.9545 5.79844 14.3471 4.46042 14.3471C2.00095 14.3471 0 16.3569 0 18.8286C0 21.3014 2.00095 23.3122 4.46042 23.3122C6.9199 23.3122 8.92084 21.3014 8.92084 18.8286C8.92084 18.3422 8.82361 17.8814 8.67998 17.4428C9.71636 16.7266 11.6731 15.0644 13.1161 12.0975V21.1248C11.0787 21.5379 9.53958 23.35 9.53958 25.5174C9.53958 27.9891 11.5405 30 14 30C16.4595 30 18.4604 27.9891 18.4604 25.5174C18.4604 23.35 16.9213 21.5379 14.8839 21.1248V12.0975C16.328 15.0644 18.2847 16.7266 19.32 17.4428C19.1764 17.8814 19.0792 18.3422 19.0792 18.8286C19.0792 21.3014 21.0801 23.3122 23.5396 23.3122C25.9991 23.3122 28 21.3014 28 18.8286C28 16.3569 25.9991 14.3471 23.5396 14.3471Z" fill="#FFA7F4"/>
</svg>
