<?xml version="1.0" encoding="utf-8" ?>
<svg xmlns="http://www.w3.org/2000/svg" xmlns:xlink="http://www.w3.org/1999/xlink" width="475" height="391">
	<path fill="#1E3856" transform="translate(0 167.713)" d="M47.247032 38.691681C54.730919 27.514063 65.617332 19.111372 76.52948 11.499674C82.252975 7.5074897 88.386635 4.1405573 94.002762 0L54.014492 12.316471L47.247032 1.4936575L40.479576 12.316471L0 0.48531461C17.468336 10.568743 35.418083 21.942869 47.247032 38.691681M32.012436 56.922741C31.801168 57.177307 29.131886 58.550381 28.940411 58.550381L19.787172 58.550381L19.787172 51.106903C22.628139 51.498928 26.790142 50.57296 29.435179 51.106903C31.941187 51.61306 33.90839 54.637592 32.012436 56.922741M35.112167 48.88726C34.464512 48.649067 30.803713 47.633282 30.424719 47.633282L11.870858 47.633282L11.870858 61.527771L32.898567 61.527771C33.11478 61.527771 35.351139 60.686161 35.813747 60.481712C42.260597 57.635826 41.617893 51.281082 35.112167 48.88726M63.821815 47.63343L63.821815 51.107052L52.936886 51.107052L63.575916 56.57106C65.03994 56.93182 63.985088 54.416424 64.31411 54.081963L68.306404 54.3008L68.769508 61.52792L41.557182 61.52792C41.097046 57.767971 44.274456 54.832264 47.490955 53.578781L47.188652 52.562996C44.013714 52.537689 43.693104 47.63343 46.257496 47.63343L63.821815 47.63343ZM94.002762 47.63343C93.96714 48.839275 94.378288 50.303158 93.260605 51.107052L84.602135 51.107052L84.602135 61.52792L76.685822 61.52792L76.685822 51.107052L67.285202 51.107052L67.285202 47.63343L94.002762 47.63343ZM52.272408 55.679333C50.833618 56.052498 49.983109 57.221619 49.473495 58.550529L57.884579 58.550529L52.272408 55.679333ZM0.49145463 61.52792L7.9129987 61.52792L7.9129987 47.63343L0.49145463 47.63343L0.49145463 61.52792Z" fill-rule="evenodd"/>
	<path fill="#1E3856" transform="translate(379.952 167.713)" d="M47.247032 38.691681C54.730919 27.514063 65.617332 19.111372 76.52948 11.499674C82.252975 7.5074897 88.386635 4.1405573 94.002762 0L54.014492 12.316471L47.247032 1.4936575L40.479576 12.316471L0 0.48531461C17.468336 10.568743 35.418083 21.942869 47.247032 38.691681M32.012436 56.922741C31.801168 57.177307 29.131886 58.550381 28.940411 58.550381L19.787172 58.550381L19.787172 51.106903C22.628139 51.498928 26.790142 50.57296 29.435179 51.106903C31.941187 51.61306 33.90839 54.637592 32.012436 56.922741M35.112167 48.88726C34.464512 48.649067 30.803713 47.633282 30.424719 47.633282L11.870858 47.633282L11.870858 61.527771L32.898567 61.527771C33.11478 61.527771 35.351139 60.686161 35.813747 60.481712C42.260597 57.635826 41.617893 51.281082 35.112167 48.88726M63.821815 47.63343L63.821815 51.107052L52.936886 51.107052L63.575916 56.57106C65.03994 56.93182 63.985088 54.416424 64.31411 54.081963L68.306404 54.3008L68.769508 61.52792L41.557182 61.52792C41.097046 57.767971 44.274456 54.832264 47.490955 53.578781L47.188652 52.562996C44.013714 52.537689 43.693104 47.63343 46.257496 47.63343L63.821815 47.63343ZM94.002762 47.63343C93.96714 48.839275 94.378288 50.303158 93.260605 51.107052L84.602135 51.107052L84.602135 61.52792L76.685822 61.52792L76.685822 51.107052L67.285202 51.107052L67.285202 47.63343L94.002762 47.63343ZM52.272408 55.679333C50.833618 56.052498 49.983109 57.221619 49.473495 58.550529L57.884579 58.550529L52.272408 55.679333ZM0.49145463 61.52792L7.9129987 61.52792L7.9129987 47.63343L0.49145463 47.63343L0.49145463 61.52792Z" fill-rule="evenodd"/>
	<path fill="#1E3856" transform="translate(83.0581 329.472)" d="M47.247032 38.691681C54.730919 27.514063 65.617332 19.111372 76.52948 11.499674C82.252975 7.5074897 88.386635 4.1405573 94.002762 0L54.014492 12.316471L47.247032 1.4936575L40.479576 12.316471L0 0.48531461C17.468336 10.568743 35.418083 21.942869 47.247032 38.691681M32.012436 56.922741C31.801168 57.177307 29.131886 58.550381 28.940411 58.550381L19.787172 58.550381L19.787172 51.106903C22.628139 51.498928 26.790142 50.57296 29.435179 51.106903C31.941187 51.61306 33.90839 54.637592 32.012436 56.922741M35.112167 48.88726C34.464512 48.649067 30.803713 47.633282 30.424719 47.633282L11.870858 47.633282L11.870858 61.527771L32.898567 61.527771C33.11478 61.527771 35.351139 60.686161 35.813747 60.481712C42.260597 57.635826 41.617893 51.281082 35.112167 48.88726M63.821815 47.63343L63.821815 51.107052L52.936886 51.107052L63.575916 56.57106C65.03994 56.93182 63.985088 54.416424 64.31411 54.081963L68.306404 54.3008L68.769508 61.52792L41.557182 61.52792C41.097046 57.767971 44.274456 54.832264 47.490955 53.578781L47.188652 52.562996C44.013714 52.537689 43.693104 47.63343 46.257496 47.63343L63.821815 47.63343ZM94.002762 47.63343C93.96714 48.839275 94.378288 50.303158 93.260605 51.107052L84.602135 51.107052L84.602135 61.52792L76.685822 61.52792L76.685822 51.107052L67.285202 51.107052L67.285202 47.63343L94.002762 47.63343ZM52.272408 55.679333C50.833618 56.052498 49.983109 57.221619 49.473495 58.550529L57.884579 58.550529L52.272408 55.679333ZM0.49145463 61.52792L7.9129987 61.52792L7.9129987 47.63343L0.49145463 47.63343L0.49145463 61.52792Z" fill-rule="evenodd"/>
	<path fill="#1E3856" transform="translate(286.004 329.472)" d="M47.247032 38.691681C54.730919 27.514063 65.617332 19.111372 76.52948 11.499674C82.252975 7.5074897 88.386635 4.1405573 94.002762 0L54.014492 12.316471L47.247032 1.4936575L40.479576 12.316471L0 0.48531461C17.468336 10.568743 35.418083 21.942869 47.247032 38.691681M32.012436 56.922741C31.801168 57.177307 29.131886 58.550381 28.940411 58.550381L19.787172 58.550381L19.787172 51.106903C22.628139 51.498928 26.790142 50.57296 29.435179 51.106903C31.941187 51.61306 33.90839 54.637592 32.012436 56.922741M35.112167 48.88726C34.464512 48.649067 30.803713 47.633282 30.424719 47.633282L11.870858 47.633282L11.870858 61.527771L32.898567 61.527771C33.11478 61.527771 35.351139 60.686161 35.813747 60.481712C42.260597 57.635826 41.617893 51.281082 35.112167 48.88726M63.821815 47.63343L63.821815 51.107052L52.936886 51.107052L63.575916 56.57106C65.03994 56.93182 63.985088 54.416424 64.31411 54.081963L68.306404 54.3008L68.769508 61.52792L41.557182 61.52792C41.097046 57.767971 44.274456 54.832264 47.490955 53.578781L47.188652 52.562996C44.013714 52.537689 43.693104 47.63343 46.257496 47.63343L63.821815 47.63343ZM94.002762 47.63343C93.96714 48.839275 94.378288 50.303158 93.260605 51.107052L84.602135 51.107052L84.602135 61.52792L76.685822 61.52792L76.685822 51.107052L67.285202 51.107052L67.285202 47.63343L94.002762 47.63343ZM52.272408 55.679333C50.833618 56.052498 49.983109 57.221619 49.473495 58.550529L57.884579 58.550529L52.272408 55.679333ZM0.49145463 61.52792L7.9129987 61.52792L7.9129987 47.63343L0.49145463 47.63343L0.49145463 61.52792Z" fill-rule="evenodd"/>
	<path fill="#1E3856" transform="translate(83.0581 0)" d="M47.247032 38.691681C54.730919 27.514063 65.617332 19.111372 76.52948 11.499674C82.252975 7.5074897 88.386635 4.1405573 94.002762 0L54.014492 12.316471L47.247032 1.4936575L40.479576 12.316471L0 0.48531461C17.468336 10.568743 35.418083 21.942869 47.247032 38.691681M32.012436 56.922741C31.801168 57.177307 29.131886 58.550381 28.940411 58.550381L19.787172 58.550381L19.787172 51.106903C22.628139 51.498928 26.790142 50.57296 29.435179 51.106903C31.941187 51.61306 33.90839 54.637592 32.012436 56.922741M35.112167 48.88726C34.464512 48.649067 30.803713 47.633282 30.424719 47.633282L11.870858 47.633282L11.870858 61.527771L32.898567 61.527771C33.11478 61.527771 35.351139 60.686161 35.813747 60.481712C42.260597 57.635826 41.617893 51.281082 35.112167 48.88726M63.821815 47.63343L63.821815 51.107052L52.936886 51.107052L63.575916 56.57106C65.03994 56.93182 63.985088 54.416424 64.31411 54.081963L68.306404 54.3008L68.769508 61.52792L41.557182 61.52792C41.097046 57.767971 44.274456 54.832264 47.490955 53.578781L47.188652 52.562996C44.013714 52.537689 43.693104 47.63343 46.257496 47.63343L63.821815 47.63343ZM94.002762 47.63343C93.96714 48.839275 94.378288 50.303158 93.260605 51.107052L84.602135 51.107052L84.602135 61.52792L76.685822 61.52792L76.685822 51.107052L67.285202 51.107052L67.285202 47.63343L94.002762 47.63343ZM52.272408 55.679333C50.833618 56.052498 49.983109 57.221619 49.473495 58.550529L57.884579 58.550529L52.272408 55.679333ZM0.49145463 61.52792L7.9129987 61.52792L7.9129987 47.63343L0.49145463 47.63343L0.49145463 61.52792Z" fill-rule="evenodd"/>
	<path fill="#1E3856" transform="translate(286.004 0)" d="M47.247032 38.691681C54.730919 27.514063 65.617332 19.111372 76.52948 11.499674C82.252975 7.5074897 88.386635 4.1405573 94.002762 0L54.014492 12.316471L47.247032 1.4936575L40.479576 12.316471L0 0.48531461C17.468336 10.568743 35.418083 21.942869 47.247032 38.691681M32.012436 56.922741C31.801168 57.177307 29.131886 58.550381 28.940411 58.550381L19.787172 58.550381L19.787172 51.106903C22.628139 51.498928 26.790142 50.57296 29.435179 51.106903C31.941187 51.61306 33.90839 54.637592 32.012436 56.922741M35.112167 48.88726C34.464512 48.649067 30.803713 47.633282 30.424719 47.633282L11.870858 47.633282L11.870858 61.527771L32.898567 61.527771C33.11478 61.527771 35.351139 60.686161 35.813747 60.481712C42.260597 57.635826 41.617893 51.281082 35.112167 48.88726M63.821815 47.63343L63.821815 51.107052L52.936886 51.107052L63.575916 56.57106C65.03994 56.93182 63.985088 54.416424 64.31411 54.081963L68.306404 54.3008L68.769508 61.52792L41.557182 61.52792C41.097046 57.767971 44.274456 54.832264 47.490955 53.578781L47.188652 52.562996C44.013714 52.537689 43.693104 47.63343 46.257496 47.63343L63.821815 47.63343ZM94.002762 47.63343C93.96714 48.839275 94.378288 50.303158 93.260605 51.107052L84.602135 51.107052L84.602135 61.52792L76.685822 61.52792L76.685822 51.107052L67.285202 51.107052L67.285202 47.63343L94.002762 47.63343ZM52.272408 55.679333C50.833618 56.052498 49.983109 57.221619 49.473495 58.550529L57.884579 58.550529L52.272408 55.679333ZM0.49145463 61.52792L7.9129987 61.52792L7.9129987 47.63343L0.49145463 47.63343L0.49145463 61.52792Z" fill-rule="evenodd"/>
	<path transform="translate(197 185.044)" d="M17.013231 38.820087C14.061733 39.876301 11.272013 40.157551 8.4797459 39.695934C3.4926436 38.862888 0.16790904 34.405693 0.009952303 28.340483C-0.14163521 22.438828 1.4328368 16.80772 5.1180696 10.082187C6.5485969 7.471457 8.3880291 4.8653126 10.743367 2.1170146C11.89747 0.77190787 13.471943 0 15.066796 0C16.377583 0 17.613213 0.52581447 18.545666 1.4842031C21.037306 4.0444918 21.493343 8.0232563 19.651363 11.156744L19.492132 11.425765C17.578817 14.678478 15.600537 18.042774 14.192939 21.871742C13.32163 24.239435 12.768781 26.553631 12.502547 28.942724C12.196824 31.695608 12.850307 34.347607 14.341979 36.41571C15.085904 37.442883 15.997976 38.259117 17.013231 38.820087L17.013231 38.820087Z" fill-rule="evenodd"/>
	<path fill="#3FF1B2" transform="translate(197 185.044)" d="M17.013231 38.820087C14.061733 39.876301 11.272013 40.157551 8.4797459 39.695934C3.4926436 38.862888 0.16790904 34.405693 0.009952303 28.340483C-0.14163521 22.438828 1.4328368 16.80772 5.1180696 10.082187C6.5485969 7.471457 8.3880291 4.8653126 10.743367 2.1170146C11.89747 0.77190787 13.471943 0 15.066796 0C16.377583 0 17.613213 0.52581447 18.545666 1.4842031C21.037306 4.0444918 21.493343 8.0232563 19.651363 11.156744L19.492132 11.425765C17.578817 14.678478 15.600537 18.042774 14.192939 21.871742C13.32163 24.239435 12.768781 26.553631 12.502547 28.942724C12.196824 31.695608 12.850307 34.347607 14.341979 36.41571C15.085904 37.442883 15.997976 38.259117 17.013231 38.820087L17.013231 38.820087Z" fill-rule="evenodd"/>
	<path transform="translate(216.831 174)" d="M5.7552304 30.408689C5.9361162 29.176693 6.1157284 27.941641 6.2647681 26.705059L6.4482017 25.256012L6.4494758 25.248369C6.864749 21.998714 7.2927608 18.639004 6.6545644 15.157012C5.7628732 10.284057 3.485239 6.8280497 0 5.006041C0.6751377 4.5107975 1.4853029 3.968169 2.4126618 3.4331834C5.1730833 1.832812 7.8736339 0.81175363 10.674818 0.31039566C13.171554 -0.14052084 15.23773 -0.071736969 17.201998 0.52897549C21.510141 1.8373976 24.255276 5.9720726 24.363554 11.3204C24.498581 17.919065 23.749559 24.377108 22.828569 31.538273L22.763605 32.137455C22.706282 32.692314 22.857868 33.299141 23.162317 33.719486C23.466766 34.138302 23.944458 34.393566 24.40559 34.393566C25.233589 34.393566 26.308714 33.476448 27.608036 31.671255C28.329031 30.665482 28.977419 29.638309 29.526445 28.754818C32.167126 24.513147 35.090599 19.482754 36.344063 13.438944C37.35677 8.550703 36.453613 4.7691188 33.662621 2.1996593C33.187473 1.7624996 32.676662 1.4048234 32.12891 1.1235739C35.91605 -0.25974622 39.217857 -0.3591007 42.550232 0.78882569C46.458389 2.1385181 49.055759 6.3175201 49.161488 11.438097C49.293968 17.501778 47.681278 23.392735 44.226612 29.447243C38.368202 39.725082 31.228302 46.351261 22.39801 49.701801C18.595585 51.146263 15.282314 51.380127 12.132096 50.429382C7.9245877 49.165287 5.1030216 44.920555 4.9476128 39.615028C4.855896 36.559494 5.2915506 33.578861 5.7526827 30.42856L5.7552304 30.414803L5.7552304 30.408689Z" fill-rule="evenodd"/>
	<path fill="#3FF1B2" transform="translate(216.831 174)" d="M5.7552304 30.408689C5.9361162 29.176693 6.1157284 27.941641 6.2647681 26.705059L6.4482017 25.256012L6.4494758 25.248369C6.864749 21.998714 7.2927608 18.639004 6.6545644 15.157012C5.7628732 10.284057 3.485239 6.8280497 0 5.006041C0.6751377 4.5107975 1.4853029 3.968169 2.4126618 3.4331834C5.1730833 1.832812 7.8736339 0.81175363 10.674818 0.31039566C13.171554 -0.14052084 15.23773 -0.071736969 17.201998 0.52897549C21.510141 1.8373976 24.255276 5.9720726 24.363554 11.3204C24.498581 17.919065 23.749559 24.377108 22.828569 31.538273L22.763605 32.137455C22.706282 32.692314 22.857868 33.299141 23.162317 33.719486C23.466766 34.138302 23.944458 34.393566 24.40559 34.393566C25.233589 34.393566 26.308714 33.476448 27.608036 31.671255C28.329031 30.665482 28.977419 29.638309 29.526445 28.754818C32.167126 24.513147 35.090599 19.482754 36.344063 13.438944C37.35677 8.550703 36.453613 4.7691188 33.662621 2.1996593C33.187473 1.7624996 32.676662 1.4048234 32.12891 1.1235739C35.91605 -0.25974622 39.217857 -0.3591007 42.550232 0.78882569C46.458389 2.1385181 49.055759 6.3175201 49.161488 11.438097C49.293968 17.501778 47.681278 23.392735 44.226612 29.447243C38.368202 39.725082 31.228302 46.351261 22.39801 49.701801C18.595585 51.146263 15.282314 51.380127 12.132096 50.429382C7.9245877 49.165287 5.1030216 44.920555 4.9476128 39.615028C4.855896 36.559494 5.2915506 33.578861 5.7526827 30.42856L5.7552304 30.414803L5.7552304 30.408689Z" fill-rule="evenodd"/>
</svg>
