<svg width="31" height="50" viewBox="0 0 31 50" fill="none" xmlns="http://www.w3.org/2000/svg">
<g clip-path="url(#clip0_158_1207)">
<path fill-rule="evenodd" clip-rule="evenodd" d="M3.2645 0.211959C2.24519 0.747601 2.05667 1.16776 1.9337 3.17713C1.88821 3.92089 1.43449 9.48894 0.925507 15.5506L0 26.5717L0.260779 27.1216C0.426425 27.4709 0.711157 27.7791 1.04151 27.9668C1.53444 28.2467 1.72256 28.2621 4.65416 28.2621C6.35519 28.2621 7.74592 28.2774 7.74459 28.2959C7.74338 28.3144 7.32552 32.8024 6.81587 38.269L5.88929 48.2084L6.18245 48.8099C6.7218 49.9162 7.6441 50.272 8.72268 49.7897C9.32037 49.5225 9.57888 49.1457 20.07 33.2443C25.9747 24.2948 30.8657 16.7751 30.9389 16.5341C31.1259 15.918 30.8765 15.1761 30.2887 14.6002L29.8097 14.1307L25.6022 14.0915C23.2881 14.0698 21.3947 14.0026 21.3947 13.9422C21.3947 13.8816 22.2677 11.2837 23.3348 8.16897C24.5429 4.6426 25.2749 2.30679 25.2749 1.97846C25.2749 1.26445 24.8497 0.618052 24.1573 0.279303C23.594 0.0037066 23.4259 -0.000756279 13.6253 5.50947e-05C4.8633 0.000866469 3.6176 0.0262897 3.2645 0.211959ZM20.458 4.11494C20.458 4.14726 19.5753 6.74879 18.4964 9.89598C17.319 13.3301 16.5364 15.8167 16.5388 16.1146C16.5439 16.7361 16.9595 17.4292 17.5386 17.7819C17.948 18.0312 18.2621 18.0556 21.5619 18.0942C23.5304 18.1172 25.1411 18.1629 25.1411 18.1958C25.1411 18.3543 10.7597 40.0339 10.7248 39.928C10.7025 39.8608 10.9568 36.8773 11.2897 33.2979C11.6224 29.7185 11.8945 26.5278 11.8942 26.2076C11.8935 25.4241 11.4921 24.7938 10.788 24.4708C10.2851 24.24 9.89117 24.2108 7.2451 24.2082L4.26801 24.2052V23.8977C4.26801 23.7287 4.62914 19.2711 5.07042 13.9922C5.51183 8.71326 5.8731 4.31819 5.87323 4.22515C5.8735 4.09195 7.42145 4.05611 13.1658 4.05611C17.1765 4.05611 20.458 4.08262 20.458 4.11494Z" fill="#3FF1B2"/>
</g>
<defs>
<clipPath id="clip0_158_1207">
<rect width="31" height="50" fill="white"/>
</clipPath>
</defs>
</svg>
