<?xml version="1.0" encoding="utf-8" ?>
<svg xmlns="http://www.w3.org/2000/svg" xmlns:xlink="http://www.w3.org/1999/xlink" width="23" height="22">
	<path fill="#FFA7F4" transform="translate(-0.000380516 0)" d="M20.285877 19.76833C20.225201 19.870565 20.149847 19.946758 20.051983 20.002697L18.842386 20.002697L17.619089 19.856098C15.01787 19.537821 12.565404 18.68812 10.329216 17.331106C7.5665221 15.653887 5.3714375 13.378694 3.8046386 10.569182C2.677248 8.5476465 1.9736074 6.3843322 1.7132899 4.1380734C1.6428279 3.5285261 1.5958533 2.8543591 1.5664941 2.0200896C1.5606223 1.8464844 1.5909601 1.7162806 1.6526142 1.6526253C1.718183 1.5870411 1.8610641 1.5484622 2.0460267 1.5474976C3.2673666 1.5426753 4.4896851 1.5426753 5.7110248 1.5474976C6.1181383 1.5494266 6.1925149 1.6690214 6.1974077 2.0036936C6.2179594 3.3655303 6.4332595 4.6878233 6.8354797 5.9358521C6.9264932 6.2203717 6.8863688 6.3708296 6.662261 6.5839782C6.216002 7.0064173 5.9840651 7.2378912 5.7159181 7.506979C5.5348701 7.6873355 5.3371854 7.8850527 5.0396795 8.1743946C4.6775837 8.5293207 4.6071215 8.9826241 4.8449306 9.4195299C6.5937562 12.638943 9.1431074 15.132107 12.430351 16.834402C12.465583 16.851763 12.501792 16.868158 12.637823 16.917347L13.138885 17.105419L13.64582 16.547953C13.742705 16.438969 13.843505 16.325161 13.953112 16.217138L14.530508 15.647135C14.731129 15.450382 14.904347 15.280635 15.262529 14.918958C15.42009 14.760784 15.539484 14.729921 15.749891 14.79454C17.150322 15.219873 18.563475 15.439774 19.948246 15.448454C20.043175 15.448454 20.149847 15.449418 20.285877 15.691501L20.285877 19.76833ZM19.958033 13.905296C18.725927 13.89758 17.465443 13.700828 16.211807 13.31986C15.443577 13.086458 14.70862 13.271637 14.142968 13.840676C13.792615 14.194638 13.622333 14.360528 13.426605 14.552458L12.840401 15.131142C12.804192 15.166827 12.767982 15.204442 12.733729 15.241092C10.045411 13.757731 7.9188318 11.665789 6.4048791 9.0134869C6.572226 8.8485622 6.7062998 8.7154646 6.8305864 8.589118C7.0909042 8.3296747 7.3150125 8.105917 7.7465916 7.6960158C8.3983641 7.0797176 8.5989847 6.309103 8.3269234 5.4680824C7.9716783 4.3647246 7.7818222 3.1919248 7.7632284 1.9805462C7.7456126 0.78556365 6.9421511 0.010126972 5.7178755 0.0043401304C4.4916425 -0.0014467102 3.2654092 -0.0014467102 2.0391762 0.0043401304C1.2513728 0.0072335508 0.78064805 0.32068741 0.52424496 0.5830242C0.27077779 0.84343207 -0.024770794 1.3121661 0.0016524236 2.0731356C0.03296883 2.949842 0.081900716 3.6616235 0.15823446 4.3136077C0.44106078 6.7595124 1.2063555 9.1137924 2.4325886 11.311827C4.1315036 14.359563 6.5125294 16.826687 9.5081396 18.644718C11.937119 20.119398 14.60097 21.0424 17.427277 21.387682L18.447994 21.51017L20.369061 21.545855L20.505091 21.493773C21.101082 21.267122 21.54734 20.830215 21.793957 20.231277L21.851698 20.091429L21.851698 15.351042L21.785151 15.202513C21.307575 14.135805 20.527601 13.90819 19.958033 13.905296L19.958033 13.905296Z" fill-rule="evenodd"/>
</svg>
