<svg width="33" height="31" viewBox="0 0 33 31" fill="none" xmlns="http://www.w3.org/2000/svg">
<path d="M13.9186 21.8001V25.7709H8.03321V29.1876H24.4999V25.7709H18.6436V21.8001M6.79987 0.850098H25.7353V11.5063C25.7353 16.598 21.602 20.7334 16.5082 20.7334H16.0249C10.9332 20.7334 6.79779 16.6001 6.79779 11.5063V0.850098H6.79987Z" stroke="#3FF1B2" stroke-width="1.7" stroke-linecap="round" stroke-linejoin="round"/>
<path d="M6.6457 4.4834H0.935281C0.935281 4.4834 -0.404302 13.7688 7.53528 15.1688M25.8874 4.4834H31.5978C31.5978 4.4834 32.9374 13.7688 24.9978 15.1688" stroke="#3FF1B2" stroke-width="1.7" stroke-linecap="round" stroke-linejoin="round"/>
<path d="M16.2665 5.27344L17.8769 8.53594L21.4749 9.05885L18.8707 11.5964L19.4853 15.1818L16.2665 13.488L13.0478 15.1818L13.6624 11.5964L11.0582 9.05885L14.6561 8.53594L16.2665 5.27344Z" stroke="#3FF1B2" stroke-width="1.7" stroke-linejoin="round"/>
</svg>
