<svg width="40" height="39" viewBox="0 0 40 39" fill="none" xmlns="http://www.w3.org/2000/svg">
<path d="M39.2734 16.9029C40.6941 15.5222 39.9137 13.1011 37.9528 12.801L28.2883 11.4003C27.5079 11.2803 26.8276 10.8 26.4875 10.0797L22.1454 1.33562C21.265 -0.445207 18.7238 -0.445207 17.8434 1.33562L13.5214 10.0997C13.1813 10.8 12.5009 11.3003 11.7206 11.4203L2.05607 12.821C0.0951569 13.1011 -0.705216 15.5222 0.735455 16.9229L7.73872 23.7461C8.29898 24.3063 8.5591 25.0867 8.41904 25.8671L6.75826 35.4915C6.4181 37.4525 8.47907 38.9532 10.2399 38.0127L18.8839 33.4706C19.5842 33.1104 20.4246 33.1104 21.125 33.4706L29.769 38.0127C31.5298 38.9332 33.5908 37.4525 33.2506 35.4915L31.5898 25.8671C31.4498 25.0867 31.7099 24.2863 32.2702 23.7461L39.2734 16.9029ZM30.0491 21.425C28.7285 22.7056 28.1282 24.5665 28.4284 26.3873L29.809 34.411L22.6056 30.6293C21.8053 30.2091 20.9049 29.989 20.0044 29.989C19.104 29.989 18.2036 30.2091 17.4032 30.6293L10.1999 34.411L11.5805 26.3873C11.9007 24.5665 11.2804 22.7256 9.97977 21.425L4.11703 15.7423L12.1808 14.5618C14.0016 14.3017 15.5824 13.1411 16.4028 11.5004L20.0044 4.19696L23.6061 11.5004C24.4265 13.1611 26.0072 14.3017 27.8281 14.5618L35.8918 15.7423L30.0491 21.425Z" fill="#FFA7F4"/>
<path d="M22.7857 26.7874H17.1831C16.3027 26.7874 15.5824 26.0671 15.5824 25.1867C15.5824 24.3063 16.3027 23.5859 17.1831 23.5859H22.7857C23.6661 23.5859 24.3865 24.3063 24.3865 25.1867C24.3865 26.0671 23.6661 26.7874 22.7857 26.7874Z" fill="#FFA7F4"/>
</svg>
