<svg width="50" height="55" viewBox="0 0 50 55" fill="none" xmlns="http://www.w3.org/2000/svg">
<g clip-path="url(#clip0_164_1201)">
<path d="M49.3381 0.45298C43.8385 4.24461 38.2749 9.3172 32.4935 15.7988C26.1954 22.8697 19.5729 31.9517 14.0691 41.0678C13.7616 41.576 13.578 41.8364 13.5439 41.8236C13.5097 41.8108 10.4866 39.7997 6.81884 37.3488C3.15104 34.8979 0.123712 32.8783 0.0895531 32.8569C0.0425847 32.8313 0.0468546 32.8484 0.0980928 32.9252C0.516539 33.523 15.9136 54.6075 15.935 54.6118C15.9478 54.6118 16.0802 54.33 16.2253 53.9799C21.4559 41.5204 26.5669 31.6315 32.613 22.2677C37.5148 14.6801 43.2065 7.33599 49.2612 0.798838C49.6498 0.384663 49.9572 0.0430742 49.9486 0.0430742C49.9401 0.0430742 49.6626 0.226678 49.3381 0.45298Z" fill="#3FF1B2"/>
</g>
<defs>
<clipPath id="clip0_164_1201">
<rect width="50" height="54.6541" fill="white"/>
</clipPath>
</defs>
</svg>
