<svg width="1440" height="652" viewBox="0 0 1440 652" fill="none" xmlns="http://www.w3.org/2000/svg">
<mask id="mask0_0_18" style="mask-type:luminance" maskUnits="userSpaceOnUse" x="0" y="0" width="1440" height="652">
<rect width="1440" height="652" fill="white"/>
</mask>
<g mask="url(#mask0_0_18)">
<path opacity="0.45" d="M1322 -217C1313.49 -178.835 1297.6 -142.882 1283.53 -106.587C1281.79 -105.319 1263.64 -112.365 1260.07 -112.542C1258.68 -112.611 1257.5 -112.605 1256.57 -111.383C1220.05 -30.7046 1172.23 44.3231 1119.21 114.979L1146.79 124.559C1092.76 199.475 1030.93 268.35 966.257 334.149C964.865 335.539 963.471 335.3 961.725 335.073C954.385 334.121 942.005 325.857 934.688 324.668C933.307 324.444 932.086 324.183 930.834 325.054C861.873 390.878 788.834 452.847 711.208 508.184L713.161 511.603C722.365 516.079 733.331 519.561 742.068 524.707C743.053 525.287 744.072 524.358 743.59 526.755L665.601 585H494C548.244 553.744 601.941 521.648 653.03 485.378C654.499 483.938 653.404 483.418 652.363 482.385C647.803 477.857 630.571 473.059 624.386 468.355C623.036 467.328 621.93 467.095 622.407 464.961C703.489 412.968 780.074 354.169 854.083 292.637C859.891 290.435 881.028 306.481 887.562 303.479C957.279 241.598 1023.46 175.928 1084.39 105.345C1084.81 102.796 1083.97 103.934 1082.75 103.445C1074.71 100.235 1065.88 98.2594 1058.01 94.5684C1117.23 26.8093 1171.84 -45.1465 1217.59 -122.797L1220.36 -124.33L1241.24 -117.535L1243.38 -118.514C1260.55 -150.622 1278.34 -182.655 1290.8 -217H1322ZM1440 -75.1758L1424.55 -77.4326C1399.19 6.88467 1363.77 88.0955 1320.17 164.409C1319.75 165.894 1320.95 166.527 1322.13 167.033C1326 168.685 1348.33 170.026 1348.86 172.718C1306.21 254.271 1253.69 330.4 1198.44 403.845C1197.44 404.917 1196.29 404.971 1194.92 404.917C1188.36 404.657 1166.37 395.479 1161.79 398.338C1109.8 464.083 1052.92 525.622 993.896 585H890.765L874 577.198C947.229 514.641 1015.38 446.658 1080.8 376.049C1081.8 374.934 1082.78 375.095 1084.09 375.154C1091.32 375.479 1104.33 382.67 1112.16 383.319C1113.91 383.465 1115.52 383.555 1116.9 382.23C1176.9 312.176 1233.63 239.187 1284.01 161.764C1284.45 160.226 1283.21 159.705 1282.05 159.145C1278.56 157.467 1256.75 155.233 1256.55 152.293C1306.03 77.7267 1350.26 -0.647888 1384.24 -83.6465L1411.34 -81.9209L1440 -164V-75.1758ZM1440 435.1L1433.15 444.757C1426.54 444.964 1400.04 438.82 1396.15 442.281L1301.89 585H1195L1313.25 428.983L1347.02 433.797L1349.98 432.166L1440 284V435.1ZM1118.57 -160.765C1115.46 -158.935 1099.5 -167.379 1095.36 -168.662L1094.16 -167.881C1045.28 -93.5182 988.297 -24.7752 925.545 38.1953L949.472 49.6689C949.98 51.4282 949.302 52.4711 948.39 53.8682C940.421 66.0709 918.574 80.2181 909.337 92.8896C856.466 142.717 801.458 190.421 743.489 234.372L739.973 235.738C735.233 236.029 718.847 224.002 712.971 221.918C711.697 221.467 710.977 221.363 709.814 222.204C632.845 278.723 551.606 329.213 468.189 375.684C466.105 377.035 467.599 377.455 468.782 378.637C474.665 384.513 489.106 389.978 496.218 395.37L496.964 397.849C410.068 447.904 319.325 490.652 225.79 527.006C220.709 527.411 198.921 506.724 192.01 504.187C190.666 503.694 189.466 503.19 187.992 503.547C126.01 526.241 63.699 548.437 0 566V468.726L101.578 436.304L104.372 436.904L134.511 460.915L138.318 461.317C232.176 427.31 325.505 390.994 414.144 345.011C415.786 342.621 387.319 326.796 385.903 324.643C384.769 322.915 385.309 322.788 386.57 321.648C472.836 279.634 556.777 232.891 637.516 181.1C639.117 180.012 640.36 180.843 641.871 181.396C648.73 183.902 659.824 194.026 666.221 195.617C667.456 195.924 668.351 196.01 669.444 195.229C727.505 155.912 784.417 114.684 838.462 69.9902C854.673 56.5831 874.902 40.8359 889.523 26.2012C890.673 25.0514 892.893 23.9391 890.682 22.6143L867.925 10.5752C935.92 -48.6106 999.77 -112.668 1055.72 -183.459C1061.05 -186.96 1074.54 -174.758 1079.15 -176.721C1083.27 -178.477 1104.2 -210.862 1107.99 -217H1150L1118.57 -160.765ZM908 -217C908.027 -214.649 906.385 -213.662 905.023 -212.182C868.313 -172.24 824.487 -132.763 782.625 -98.2295C768.512 -86.586 753.808 -74.8412 738.881 -64.5771C738.437 -62.7555 739.159 -62.6594 740.144 -61.6689C743.268 -58.5251 758.764 -51.5428 759.901 -49.0068C760.542 -47.5534 757.846 -45.7055 756.878 -44.7861C749.648 -37.9141 737.499 -29.6156 729.176 -23.3027C677.659 15.7697 620.966 53.3967 565.32 86.3701C559.807 89.6372 531.85 106.82 528.26 107.015C523.299 107.282 509.105 93.2311 503.722 90.8047C501.659 89.8753 500.969 90.1655 498.962 90.7256C491.999 92.6688 477.686 102.584 470.218 106.426C413.283 135.72 355.225 163.007 296.23 187.962C277.141 196.037 257.168 202.97 238.718 212L265.075 233.021C266.725 235.338 260.466 237.745 259.066 238.38C228.755 252.139 191.821 265.419 160.152 276.224C107.589 294.158 53.6093 308.546 0 323V229.4C12.6026 227.351 25.1017 223.89 37.4424 220.658C89.152 207.117 140.368 192.013 190.717 174.19C191.077 171.954 189.148 170.73 187.747 169.37C182.338 164.117 170.535 156.354 166.711 150.815C166.01 149.801 165.04 149.632 165.529 147.809C257.994 118.2 347.749 80.7089 436.151 41.0107L462.392 58.917C546.209 18.7346 626.739 -28.1157 703.994 -79.6953L706.481 -83.7783C700.513 -86.6853 693.753 -91.1622 688.592 -95.2939C687.836 -95.8985 685.632 -97.1278 686.672 -98.21C734.066 -129.79 780.6 -162.863 824.607 -199.029C831.443 -204.648 838.646 -210.363 844.428 -217H908ZM565.573 -190.563C565.137 -188.639 566.245 -188.117 567.335 -186.94C571.467 -182.484 579.09 -177.766 584.013 -173.866L584.774 -171.39C503.833 -124.708 419.908 -83.1737 333.209 -48.1113L308.238 -69.0635C217.865 -34.557 125.226 -5.95349 31.2227 17.1846C30.0525 18.7032 52.2694 39.198 54.0508 41.7725C54.7557 42.7896 55.7242 42.9592 55.2324 44.7822L0 58V-59.6855C84.0425 -77.5716 167.459 -98.5218 249.315 -124.508C251.262 -124.984 252.433 -124.335 254.033 -123.396C258.167 -120.972 272.099 -102.806 275.354 -103.111C364.615 -133.808 452.035 -169.542 536.747 -211.015C537.64 -214.539 532.76 -213.566 531.948 -217H610L565.573 -190.563Z" fill="url(#paint0_linear_0_18)"/>
</g>
<defs>
<linearGradient id="paint0_linear_0_18" x1="782.608" y1="-196.517" x2="707.805" y2="496.354" gradientUnits="userSpaceOnUse">
<stop stop-color="#FFE243"/>
<stop offset="0.525377" stop-color="#43FFBB"/>
<stop offset="1" stop-color="#091A2E"/>
</linearGradient>
</defs>
</svg>
