<svg width="40" height="40" viewBox="0 0 40 40" fill="none" xmlns="http://www.w3.org/2000/svg">
<path d="M30 8V5C30 3.34315 28.6569 2 27 2H5C3.34315 2 2 3.34315 2 5V8H30ZM22.9996 10H2V29C2 30.6569 3.34315 32 5 32H22V13C22 11.8744 22.3719 10.8357 22.9996 10ZM27 10C25.3431 10 24 11.3431 24 13V35C24 36.6569 25.3431 38 27 38H35C36.6569 38 38 36.6569 38 35V13C38 11.3431 36.6569 10 35 10H27ZM32 8H35C37.7614 8 40 10.2386 40 13V35C40 37.7614 37.7614 40 35 40H27C24.2386 40 22 37.7614 22 35V34H5C2.23858 34 0 31.7614 0 29V5C0 2.23858 2.23858 0 5 0H27C29.7614 0 32 2.23858 32 5V8ZM4 4H6V6H4V4ZM8 4H10V6H8V4ZM12 4H14V6H12V4ZM29 36C28.4477 36 28 35.5523 28 35C28 34.4477 28.4477 34 29 34H33C33.5523 34 34 34.4477 34 35C34 35.5523 33.5523 36 33 36H29Z" fill="#FFA177"/>
</svg>
