<svg width="40" height="40" viewBox="0 0 40 40" fill="none" xmlns="http://www.w3.org/2000/svg">
<g clip-path="url(#clip0_162_1637)">
<path d="M19.0469 0.0187434C16.0719 0.193743 13.5312 0.865619 11 2.14062C5.4875 4.92187 1.56875 10.0812 0.37812 16.125C0.112495 17.4687 0.0187454 18.4906 0.0187454 20C0.0187454 21.2562 0.0531204 21.7812 0.206245 22.8437C0.90312 27.725 3.36875 32.1469 7.16875 35.3344C10.1375 37.825 13.7844 39.4031 17.625 39.8562C18.5031 39.9594 18.925 39.9844 20 39.9844C21.1219 39.9844 21.5156 39.9625 22.4844 39.8406C29.1062 39.025 34.9062 34.9156 37.9 28.9219C38.8562 27.0062 39.4875 24.9812 39.7937 22.8437C39.9469 21.7844 39.9812 21.2562 39.9812 20.0156C39.9812 18.7719 39.9437 18.1937 39.7937 17.1562C38.5406 8.38124 31.6125 1.45312 22.8437 0.203118C21.9125 0.0718685 21.3187 0.0281185 20.25 0.0187434C19.6906 0.0124934 19.15 0.0124934 19.0469 0.0187434ZM21.3062 2.24062C22.3125 3.29999 22.7625 3.80624 23.3656 4.54999C24.7 6.20624 25.8719 8.01249 26.725 9.75C26.9812 10.2687 27.375 11.1344 27.3594 11.15C27.3312 11.1781 26.55 11.4031 25.9687 11.5469C25.0531 11.7781 24.3656 11.9125 23.3437 12.0625C22.875 12.1312 22.225 12.1937 21.2281 12.2656L20.9687 12.2812V7.12499C20.9687 3.04999 20.9781 1.96874 21.0062 1.96874C21.0281 1.96874 21.1625 2.09062 21.3062 2.24062ZM19.0312 7.18749V12.2844L18.8062 12.2656C18.6812 12.2562 18.375 12.2344 18.125 12.2187C17.1875 12.15 16.175 12.0094 15.1719 11.8094C14.3469 11.6437 12.8437 11.25 12.8437 11.2C12.8437 11.1906 12.95 10.9437 13.0812 10.6469C14.1937 8.14062 15.7375 5.74687 17.6844 3.50937C18.1375 2.99062 18.9719 2.09374 19.0062 2.09374C19.0187 2.09374 19.0312 4.38749 19.0312 7.18749ZM16.0437 2.41249C16.0281 2.43437 15.9125 2.57812 15.7812 2.73437C13.925 4.92812 12.3 7.52499 11.2344 10.0031C11.1094 10.2969 10.9969 10.5437 10.9875 10.5531C10.9437 10.5969 9.15937 9.775 8.4 9.35937C7.52812 8.88124 6.40625 8.18749 6.40625 8.12499C6.40625 8.06249 7.95625 6.53749 8.35937 6.20624C10.3594 4.54999 12.4375 3.42499 14.825 2.70312C15.0406 2.64062 16.0062 2.38124 16.0562 2.37499C16.0625 2.37499 16.0562 2.39374 16.0437 2.41249ZM24.5625 2.53437C27.3969 3.28749 29.8719 4.62187 32.0437 6.55937C32.4594 6.93437 33.5062 7.99062 33.5656 8.09687C33.5906 8.14687 33.55 8.18437 33.2375 8.38749C32.4687 8.88749 31.4906 9.43749 30.6406 9.84687C30.0687 10.1219 29.2906 10.4687 29.2375 10.4687C29.2187 10.4687 29.1125 10.2625 29 10.0062C27.9719 7.65624 26.5 5.29062 24.7062 3.11249C24.4812 2.84062 24.2656 2.57499 24.225 2.52812C24.1844 2.47812 24.1625 2.43749 24.1781 2.43749C24.1906 2.43749 24.3656 2.48124 24.5625 2.53437ZM6.45937 10.4969C7.5 11.1219 8.52187 11.6406 9.65937 12.125C9.99375 12.2687 10.2781 12.3937 10.2906 12.4062C10.3031 12.4187 10.2812 12.5375 10.2375 12.675C9.91562 13.7125 9.60937 14.9906 9.44062 16.0312C9.30625 16.8437 9.15625 18.2344 9.15625 18.65C9.15625 18.7531 9.14687 18.8812 9.1375 18.9344L9.11562 19.0312L5.55 19.025L1.98437 19.0156L1.99375 18.8281C2.06562 17.3219 2.425 15.5625 2.99062 13.9531C3.47187 12.5875 4.30937 10.9312 5.05 9.88437L5.1875 9.69062L5.59375 9.95312C5.81562 10.1 6.20625 10.3437 6.45937 10.4969ZM35.0719 10.0719C36.1 11.6375 36.8531 13.2812 37.375 15.1C37.6656 16.1187 37.9156 17.5125 37.9844 18.5C37.9937 18.6469 38.0094 18.825 38.0187 18.8969L38.0344 19.0312H34.5844H31.1344L31.1125 18.6312C31.0094 16.7937 30.6437 14.7594 30.0906 12.9531C30.0031 12.6594 29.9281 12.3969 29.925 12.3656C29.9219 12.3219 30.05 12.2562 30.4969 12.0625C31.7125 11.5344 32.9937 10.8531 34.1281 10.1312C34.4281 9.94062 34.7 9.76562 34.7344 9.74062C34.7687 9.7125 34.8062 9.7 34.8187 9.70625C34.8344 9.71562 34.9469 9.87812 35.0719 10.0719ZM28.1281 13.2031C28.6406 14.8187 28.9562 16.375 29.1062 18.0156C29.1312 18.2906 29.1562 18.6281 29.1625 18.7656L29.1719 19.0156L25.0719 19.025L20.9687 19.0312V16.6312V14.2312L21.5875 14.1937C23.5719 14.075 25.7969 13.6781 27.5781 13.1281C27.8031 13.0594 28.0031 13.0062 28.0281 13.0094C28.05 13.0125 28.0969 13.1 28.1281 13.2031ZM12.6625 13.2C14.5094 13.7375 16.4906 14.0781 18.4156 14.1937L19.0312 14.2312V16.6312V19.0312H15.0625H11.0937V18.8937C11.0937 18.6656 11.1844 17.6437 11.2531 17.125C11.3812 16.1469 11.5937 15.075 11.8469 14.1375C11.9937 13.5875 12.1531 13.0625 12.1719 13.0625C12.1781 13.0625 12.4 13.125 12.6625 13.2ZM9.1375 21.0375C9.14687 21.0781 9.15625 21.1937 9.15625 21.2969C9.15625 21.5594 9.2375 22.45 9.3125 23.0469C9.50625 24.5469 9.875 26.1812 10.3437 27.6031C10.4281 27.8625 10.4875 28.0875 10.475 28.0969C10.4625 28.1094 10.2781 28.1906 10.0625 28.275C8.77812 28.7875 7.32187 29.5344 5.99062 30.3687C5.7 30.5469 5.45312 30.6844 5.44062 30.6687C5.37187 30.5937 4.95 29.975 4.75625 29.6656C3.50625 27.6875 2.66875 25.55 2.25312 23.2812C2.15 22.7312 2.04687 21.9375 2.01562 21.5C2.00625 21.3531 1.99062 21.175 1.98125 21.1L1.96562 20.9687H5.54062H9.11875L9.1375 21.0375ZM19.0312 23.6531V26.3375L18.7281 26.3562C16.8469 26.4781 15.6187 26.65 14.0219 27.0156C13.5812 27.1187 12.4156 27.4281 12.3719 27.4562C12.35 27.4687 12.1094 26.7437 11.9406 26.1562C11.5 24.6125 11.2062 22.9156 11.1062 21.3031L11.0844 20.9687H15.0594H19.0312V23.6531ZM29.1719 21.1937C29.1031 22.0969 29.0812 22.3344 29.0125 22.875C28.875 23.9312 28.6531 25.0219 28.3719 26.0312C28.2094 26.6 27.9094 27.5312 27.8875 27.5312C27.8812 27.5312 27.7156 27.4844 27.5219 27.425C26.4156 27.0906 25.0469 26.7875 23.8437 26.6125C22.9687 26.4844 22.4219 26.4312 21.275 26.3562L20.9687 26.3375V23.6531V20.9687H25.0781H29.1906L29.1719 21.1937ZM38.0187 21.0844C38.0094 21.15 37.9937 21.3281 37.9844 21.4844C37.8156 23.9531 36.9719 26.6844 35.6812 28.9375C35.3594 29.4937 34.7031 30.5094 34.5594 30.6687C34.5469 30.6844 34.3 30.55 34.0094 30.3687C32.725 29.5656 31.1469 28.75 30.025 28.3094C29.8719 28.25 29.75 28.1875 29.75 28.1656C29.75 28.1437 29.7781 28.0562 29.8125 27.9656C29.9219 27.6875 30.2812 26.475 30.425 25.8906C30.7875 24.425 31.0125 22.9844 31.1 21.5687L31.1375 20.9687H34.5875H38.0375L38.0187 21.0844ZM19.0312 33.1L19.0281 37.8906L18.6812 37.5312C16.4906 35.2594 14.5781 32.5156 13.3437 29.8781C13.2062 29.5781 13.0969 29.3187 13.1031 29.3C13.1312 29.2344 14.5094 28.8875 15.4687 28.7062C16.5937 28.4937 17.9312 28.3375 18.775 28.3187L19.0312 28.3125V33.1ZM22.3281 28.3937C23.8312 28.5406 25.4687 28.85 26.7656 29.2375C26.9219 29.2812 27.0719 29.3281 27.1031 29.3344C27.1312 29.3437 27.1562 29.3656 27.1562 29.3875C27.1562 29.4594 26.3031 31.1344 25.975 31.7031C24.9812 33.4344 23.8469 35 22.4125 36.6187C21.7687 37.3469 21.0969 38.0312 21.0281 38.0312C20.9687 38.0312 20.9687 37.9125 20.9687 33.1687V28.3031L21.4156 28.325C21.6594 28.3375 22.0719 28.3687 22.3281 28.3937ZM11.7344 31.0156C12.7844 33.1812 14.0812 35.175 15.7187 37.1406C15.9406 37.4062 16.1156 37.625 16.1062 37.625C16.0562 37.625 15.3656 37.45 15.0062 37.3469C12.0125 36.4781 9.38125 34.9125 7.14375 32.6594L6.70937 32.225L6.97187 32.0531C7.99375 31.3906 9.65937 30.5375 10.9375 30.0219L11.2031 29.9156L11.2781 30.075C11.3219 30.1625 11.525 30.5844 11.7344 31.0156ZM29.5844 30.2406C30.5687 30.6594 32.1719 31.5 33.0281 32.0531L33.2906 32.225L32.8406 32.6781C30.8531 34.6781 28.5156 36.1531 25.8937 37.0594C25.2781 37.2719 24.2187 37.5781 24.2187 37.5406C24.2187 37.5344 24.3844 37.3281 24.5875 37.0844C26.2656 35.075 27.7031 32.8375 28.7187 30.6594C28.8812 30.3125 29.0312 30.0312 29.05 30.0312C29.0719 30.0312 29.3125 30.125 29.5844 30.2406Z" fill="#FFA7F4"/>
</g>
<defs>
<clipPath id="clip0_162_1637">
<rect width="40" height="40" fill="white"/>
</clipPath>
</defs>
</svg>
