<svg width="1440" height="652" viewBox="0 0 1440 652" fill="none" xmlns="http://www.w3.org/2000/svg">
<mask id="mask0_0_29" style="mask-type:luminance" maskUnits="userSpaceOnUse" x="0" y="0" width="1440" height="652">
<rect width="1440" height="652" fill="white"/>
</mask>
<g mask="url(#mask0_0_29)">
<path opacity="0.45" d="M1322 -337C1313.49 -298.835 1297.6 -262.882 1283.53 -226.587C1281.79 -225.319 1263.64 -232.365 1260.07 -232.542C1258.68 -232.611 1257.5 -232.605 1256.57 -231.383C1220.05 -150.705 1172.23 -75.6769 1119.21 -5.02148L1146.79 4.55859C1092.76 79.4755 1030.93 148.35 966.257 214.149C964.865 215.539 963.471 215.3 961.725 215.073C954.385 214.121 942.005 205.857 934.688 204.668C933.307 204.444 932.086 204.183 930.834 205.054C861.873 270.878 788.834 332.847 711.208 388.184L713.161 391.603C722.365 396.079 733.331 399.561 742.068 404.707C743.053 405.287 744.072 404.358 743.59 406.755L665.601 465H494C548.244 433.744 601.941 401.648 653.03 365.378C654.499 363.938 653.404 363.418 652.363 362.385C647.803 357.857 630.571 353.059 624.386 348.355C623.036 347.328 621.93 347.095 622.407 344.961C703.489 292.968 780.074 234.169 854.083 172.637C859.891 170.435 881.028 186.481 887.562 183.479C957.279 121.598 1023.46 55.9276 1084.39 -14.6553C1084.81 -17.2041 1083.97 -16.066 1082.75 -16.5547C1074.71 -19.765 1065.88 -21.7406 1058.01 -25.4316C1117.23 -93.1907 1171.84 -165.147 1217.59 -242.797L1220.36 -244.33L1241.24 -237.535L1243.38 -238.514C1260.55 -270.622 1278.34 -302.655 1290.8 -337H1322ZM1440 -195.176L1424.55 -197.433C1399.19 -113.115 1363.77 -31.9045 1320.17 44.4092C1319.75 45.8942 1320.95 46.5267 1322.13 47.0332C1326 48.6852 1348.33 50.0258 1348.86 52.7178C1306.21 134.271 1253.69 210.4 1198.44 283.845C1197.44 284.917 1196.29 284.971 1194.92 284.917C1188.36 284.657 1166.37 275.479 1161.79 278.338C1109.8 344.083 1052.92 405.622 993.896 465H890.765L874 457.198C947.229 394.641 1015.38 326.658 1080.8 256.049C1081.8 254.934 1082.78 255.095 1084.09 255.154C1091.32 255.479 1104.33 262.67 1112.16 263.319C1113.91 263.465 1115.52 263.555 1116.9 262.23C1176.9 192.176 1233.63 119.187 1284.01 41.7637C1284.45 40.2256 1283.21 39.7048 1282.05 39.1445C1278.56 37.4666 1256.75 35.233 1256.55 32.293C1306.03 -42.2733 1350.26 -120.648 1384.24 -203.646L1411.34 -201.921L1440 -284V-195.176ZM1440 315.1L1433.15 324.757C1426.54 324.964 1400.04 318.82 1396.15 322.281L1301.89 465H1195L1313.25 308.983L1347.02 313.797L1349.98 312.166L1440 164V315.1ZM1118.57 -280.765C1115.46 -278.935 1099.5 -287.379 1095.36 -288.662L1094.16 -287.881C1045.28 -213.518 988.297 -144.775 925.545 -81.8047L949.472 -70.3311C949.98 -68.5718 949.302 -67.5289 948.39 -66.1318C940.421 -53.9291 918.574 -39.7819 909.337 -27.1104C856.466 22.7169 801.458 70.4205 743.489 114.372L739.973 115.738C735.233 116.029 718.847 104.002 712.971 101.918C711.697 101.467 710.977 101.363 709.814 102.204C632.845 158.723 551.606 209.213 468.189 255.684C466.105 257.035 467.599 257.455 468.782 258.637C474.665 264.513 489.106 269.978 496.218 275.37L496.964 277.849C410.068 327.904 319.325 370.652 225.79 407.006C220.709 407.411 198.921 386.724 192.01 384.187C190.666 383.694 189.466 383.19 187.992 383.547C126.01 406.241 63.699 428.437 0 446V348.726L101.578 316.304L104.372 316.904L134.511 340.915L138.318 341.317C232.176 307.31 325.505 270.994 414.144 225.011C415.786 222.621 387.319 206.796 385.903 204.643C384.769 202.915 385.309 202.788 386.57 201.648C472.836 159.634 556.777 112.891 637.516 61.0996C639.117 60.012 640.36 60.8433 641.871 61.3955C648.73 63.9016 659.824 74.0264 666.221 75.6172C667.456 75.9238 668.351 76.0095 669.444 75.2295C727.505 35.9122 784.417 -5.31604 838.462 -50.0098C854.673 -63.4169 874.902 -79.1641 889.523 -93.7988C890.673 -94.9486 892.893 -96.0609 890.682 -97.3857L867.925 -109.425C935.92 -168.611 999.77 -232.668 1055.72 -303.459C1061.05 -306.96 1074.54 -294.758 1079.15 -296.721C1083.27 -298.477 1104.2 -330.862 1107.99 -337H1150L1118.57 -280.765ZM908 -337C908.027 -334.649 906.385 -333.662 905.023 -332.182C868.313 -292.24 824.487 -252.763 782.625 -218.229C768.512 -206.586 753.808 -194.841 738.881 -184.577C738.437 -182.756 739.159 -182.659 740.144 -181.669C743.268 -178.525 758.764 -171.543 759.901 -169.007C760.542 -167.553 757.846 -165.705 756.878 -164.786C749.648 -157.914 737.499 -149.616 729.176 -143.303C677.659 -104.23 620.966 -66.6033 565.32 -33.6299C559.807 -30.3628 531.85 -13.1798 528.26 -12.9854C523.299 -12.7178 509.105 -26.7689 503.722 -29.1953C501.659 -30.1247 500.969 -29.8345 498.962 -29.2744C491.999 -27.3312 477.686 -17.4162 470.218 -13.5742C413.283 15.7201 355.225 43.0067 296.23 67.9619C277.141 76.0373 257.168 82.9702 238.718 92L265.075 113.021C266.725 115.338 260.466 117.745 259.066 118.38C228.755 132.139 191.821 145.419 160.152 156.224C107.589 174.158 53.6093 188.546 0 203V109.4C12.6026 107.351 25.1017 103.89 37.4424 100.658C89.152 87.1169 140.368 72.0125 190.717 54.1904C191.077 51.9539 189.148 50.73 187.747 49.3701C182.338 44.1172 170.535 36.3543 166.711 30.8154C166.01 29.8009 165.04 29.6323 165.529 27.8086C257.994 -1.79959 347.749 -39.2911 436.151 -78.9893L462.392 -61.083C546.209 -101.265 626.739 -148.116 703.994 -199.695L706.481 -203.778C700.513 -206.685 693.753 -211.162 688.592 -215.294C687.836 -215.899 685.632 -217.128 686.672 -218.21C734.066 -249.79 780.6 -282.863 824.607 -319.029C831.443 -324.648 838.646 -330.363 844.428 -337H908ZM565.573 -310.563C565.137 -308.639 566.245 -308.117 567.335 -306.94C571.467 -302.484 579.09 -297.766 584.013 -293.866L584.774 -291.39C503.833 -244.708 419.908 -203.174 333.209 -168.111L308.238 -189.063C217.865 -154.557 125.226 -125.953 31.2227 -102.815C30.0525 -101.297 52.2694 -80.802 54.0508 -78.2275C54.7557 -77.2104 55.7242 -77.0408 55.2324 -75.2178L0 -62V-179.686C84.0425 -197.572 167.459 -218.522 249.315 -244.508C251.262 -244.984 252.433 -244.335 254.033 -243.396C258.167 -240.972 272.099 -222.806 275.354 -223.111C364.615 -253.808 452.035 -289.542 536.747 -331.015C537.64 -334.539 532.76 -333.566 531.948 -337H610L565.573 -310.563Z" fill="url(#paint0_linear_0_29)"/>
</g>
<defs>
<linearGradient id="paint0_linear_0_29" x1="782.608" y1="-316.517" x2="707.805" y2="376.354" gradientUnits="userSpaceOnUse">
<stop stop-color="#FFE243"/>
<stop offset="0.525377" stop-color="#43FFBB"/>
<stop offset="1" stop-color="#091A2E"/>
</linearGradient>
</defs>
</svg>
