<?xml version="1.0" encoding="utf-8" ?>
<svg xmlns="http://www.w3.org/2000/svg" xmlns:xlink="http://www.w3.org/1999/xlink" width="26" height="27">
	<path fill="#80B8FF" d="M8.6153307e-14 7.5220776L7.4982581 7.5220776L7.4982581 -1.7763568e-15L8.6153307e-14 -1.7763568e-15L8.6153307e-14 7.5220776ZM1.7449738 5.7715607L5.752193 5.7715607L5.752193 1.7516117L1.7449738 1.7516117L1.7449738 5.7715607ZM10.045331 4.637392L26 4.637392L26 2.8868752L10.045331 2.8868752L10.045331 4.637392ZM8.6153307e-14 17.26104L7.4982581 17.26104L7.4982581 9.7389612L8.6153307e-14 9.7389612L8.6153307e-14 17.26104ZM1.7449738 15.509427L5.752193 15.509427L5.752193 11.490573L1.7449738 11.490573L1.7449738 15.509427ZM10.045331 14.376353L26 14.376353L26 12.624742L10.045331 12.624742L10.045331 14.376353ZM8.6153307e-14 27L7.4982581 27L7.4982581 19.477922L8.6153307e-14 19.477922L8.6153307e-14 27ZM1.7449738 25.249483L5.752193 25.249483L5.752193 21.229534L1.7449738 21.229534L1.7449738 25.249483ZM10.045331 24.11422L26 24.11422L26 22.363703L10.045331 22.363703L10.045331 24.11422Z" fill-rule="evenodd"/>
</svg>
