<svg width="95" height="62" viewBox="0 0 95 62" fill="none" xmlns="http://www.w3.org/2000/svg">
<path d="M7.91309 47.6338V61.5283H0.491211V47.6338H7.91309ZM63.8223 51.1074H52.9365L63.5762 56.5713C65.0398 56.9316 63.9855 54.4165 64.3145 54.082L68.3066 54.3008L68.7695 61.5283H41.5576C41.0975 57.7684 44.2747 54.8326 47.4912 53.5791L47.1885 52.5635C44.0137 52.538 43.6935 47.6338 46.2578 47.6338H63.8223V51.1074ZM94.0029 47.6338C93.9674 48.8396 94.3783 50.3036 93.2607 51.1074H84.6025V61.5283H76.6855V51.1074H67.2852V47.6338H94.0029ZM30.4248 47.6328C30.8043 47.633 34.4647 48.6495 35.1123 48.8877C41.6178 51.2816 42.2602 57.6356 35.8135 60.4814C35.3506 60.686 33.1146 61.5273 32.8984 61.5273H11.8711V47.6328H30.4248ZM29.4355 51.1064C26.7905 50.5725 22.6281 51.4985 19.7871 51.1064V58.5508H28.9404C29.1321 58.5507 31.8014 57.1774 32.0127 56.9229C33.9085 54.6378 31.9414 51.6128 29.4355 51.1064ZM52.2725 55.6797C50.8337 56.0529 49.9832 57.2219 49.4736 58.5508H57.8848L52.2725 55.6797ZM94.0029 0C88.3868 4.14056 82.2528 7.50782 76.5293 11.5C65.6173 19.1116 54.7309 27.514 47.2471 38.6914C35.4181 21.9427 17.4683 10.5687 0 0.485352L40.4795 12.3164L47.2471 1.49414L54.0146 12.3164L94.0029 0Z" fill="#1E3856"/>
</svg>
