<?xml version="1.0" encoding="utf-8" ?>
<svg xmlns="http://www.w3.org/2000/svg" xmlns:xlink="http://www.w3.org/1999/xlink" width="65" height="48">
	<path fill="#3FF1B2" transform="translate(0.129395 0.323895)" d="M15.533819 44.975212C12.838973 45.927879 10.291838 46.181553 7.7423763 45.765194C3.1889355 45.013817 0.15330826 40.993603 0.0090868855 35.523022C-0.1293191 30.199959 1.3082423 25.120922 4.6730199 19.054754C5.9791536 16.699978 7.6586347 14.349339 9.8091612 11.870481C10.862908 10.657248 12.300469 9.9610176 13.75664 9.9610176C14.953444 9.9610176 16.081629 10.435281 16.932999 11.29971C19.207975 13.60899 19.624357 17.19768 17.942549 20.023962L17.797165 20.266609C16.050224 23.200428 14.243969 26.234892 12.95877 29.688471C12.163226 31.824038 11.658452 33.91135 11.415369 36.066219C11.13623 38.549213 11.732888 40.941212 13.094851 42.806561C13.774086 43.733028 14.606849 44.469242 15.533819 44.975212L15.533819 44.975212ZM23.361319 27.427444C23.526474 26.316233 23.690468 25.202265 23.826548 24.086916L23.994032 22.779932L23.995193 22.773039C24.374357 19.841978 24.76515 16.811651 24.182449 13.67103C23.368296 9.275816 21.288717 6.1586328 18.106543 4.5152531C18.722973 4.0685625 19.462688 3.5791328 20.309408 3.0965967C22.829792 1.6531246 25.295513 0.73216993 27.853115 0.27996469C30.132744 -0.12674429 32.019253 -0.064703926 33.812714 0.47711515C37.746235 1.6572605 40.252666 5.3865752 40.351524 10.210557C40.474812 16.162294 39.790924 21.987196 38.95002 28.446285L38.890701 28.986725C38.838364 29.487185 38.976772 30.034517 39.254745 30.413654C39.532722 30.79141 39.968876 31.021648 40.389908 31.021648C41.145908 31.021648 42.127541 30.194445 43.313881 28.566231C43.972179 27.659061 44.564186 26.732594 45.065472 25.935719C47.476528 22.109898 50.145786 17.57268 51.290253 12.1214C52.214897 7.712399 51.390278 4.3015585 48.841976 1.9840064C48.40815 1.5897055 47.941757 1.2670957 47.441635 1.0134195C50.89946 -0.2342809 53.91415 -0.32389474 56.956757 0.7114898C60.52507 1.9288595 62.896584 5.6981554 62.993118 10.316715C63.114079 15.785917 61.641624 21.099329 58.487362 26.560259C53.138378 35.830467 46.619339 41.807018 38.5569 44.829075C35.085121 46.131924 32.059959 46.342857 29.183674 45.485325C25.342035 44.345161 22.765823 40.516582 22.623928 35.731201C22.540186 32.975231 22.937958 30.286816 23.358992 27.445368L23.361319 27.432959L23.361319 27.427444Z" fill-rule="evenodd"/>
</svg>
