<svg width="306" height="345" viewBox="0 0 306 345" fill="none" xmlns="http://www.w3.org/2000/svg">
<path fill-rule="evenodd" clip-rule="evenodd" d="M276.38 1.44103C271.98 2.44403 262.305 4.86803 254.88 6.82803C247.455 8.78703 232.83 12.439 222.38 14.943C200.639 20.154 177.792 26.478 176.505 27.642C176.024 28.077 175.952 31.864 176.345 36.056L176.621 38.9953C176.86 41.5476 179.181 43.3837 181.72 43.029C204.169 39.894 243.411 32.25 265.38 26.732C277.157 23.775 291.88 21.69 291.88 22.98C291.88 23.34 288.618 27.982 284.63 33.295L281.726 37.1646C280.149 39.2672 276.814 38.3788 276.491 35.77C276.003 31.818 275.301 28.584 274.933 28.584C274.564 28.584 270.689 29.9 266.321 31.508C193.501 58.318 126.391 102.37 80.325 153.599C42.53 195.63 17.464 236.813 6.382 275.084C1.305 292.617 -0.384001 306.196 0.0709987 325.835C0.347999 337.802 0.871999 343.976 1.681 344.785C3.1 346.204 3.43999 340.978 2.99499 324.584C2.27999 298.285 13.827 270.766 44.955 224.584C92.539 153.988 160.994 101.448 262.692 57.467L263.91 56.94C264.781 56.5634 265.595 57.5716 265.043 58.343C263.965 59.851 259.184 65.741 254.419 71.434C249.653 77.126 245.382 82.764 244.926 83.962C244.23 85.794 246.273 102.311 247.327 103.364C248.94 104.978 298.101 41.2 304.159 29.633C306.789 24.612 306.249 8.75503 303.339 5.53803C298.33 0.00402641 288.937 -1.42397 276.38 1.44103Z" fill="url(#paint0_linear_156_1206)"/>
<defs>
<linearGradient id="paint0_linear_156_1206" x1="0" y1="0" x2="0" y2="345.007" gradientUnits="userSpaceOnUse">
<stop stop-color="#FFE243"/>
<stop offset="1" stop-color="#3FF1B2"/>
</linearGradient>
</defs>
</svg>
