<svg width="50" height="33" viewBox="0 0 50 33" fill="none" xmlns="http://www.w3.org/2000/svg">
<path fill-rule="evenodd" clip-rule="evenodd" d="M4.3166 0.191578C3.27998 0.460736 2.49053 0.914075 1.7085 1.68912C0.914453 2.47598 0.466797 3.25084 0.192871 4.31208C0.00615235 5.03574 0 5.42365 0 16.4469C0 24.2099 0.0336914 28.017 0.105859 28.4085C0.476855 30.421 2.18213 32.2515 4.19727 32.8004C4.92334 32.9982 5.04795 32.9994 25.002 32.9994C47.1103 32.9994 45.5355 33.0425 46.875 32.4007C47.8434 31.9368 48.9188 30.8286 49.4073 29.7916C49.6168 29.3467 49.8359 28.7244 49.8941 28.4085C49.9663 28.017 50 24.2099 50 16.4469C50 5.42365 49.9938 5.03574 49.8071 4.31208C49.5346 3.25626 49.0847 2.47676 48.291 1.68574C47.5005 0.897814 46.7321 0.462671 45.6449 0.187029C44.9055 -0.000345851 44.4977 -0.00402349 24.96 0.00120287C5.65791 0.00633245 5.00684 0.0123334 4.3166 0.191578ZM45.3581 3.33175C45.853 3.57497 46.3887 4.10583 46.6341 4.59634C46.8214 4.9706 46.8269 5.26618 46.8521 16.3469C46.8811 28.9896 46.9196 28.2183 46.218 29.0307C46.0214 29.2585 45.6383 29.5473 45.3668 29.6725L44.873 29.9004H25H5.12695L4.6332 29.6725C4.36172 29.5473 3.97959 29.2595 3.78408 29.0331C3.08496 28.2237 3.1249 28.9817 3.12559 16.553C3.12588 8.80869 3.15869 5.25099 3.23203 4.98909C3.45781 4.18336 4.19805 3.43105 4.9874 3.20525C5.2042 3.14322 12.3107 3.11515 25.1465 3.12541C44.6461 3.14109 44.9771 3.14447 45.3581 3.33175ZM7.17285 6.32413C6.52559 6.6081 6.1544 7.3484 6.29277 8.07942C6.37832 8.53121 6.86543 9.06614 7.30889 9.19525C7.53975 9.26251 8.70811 9.28855 10.6132 9.269C13.4252 9.24016 13.5729 9.22951 13.8358 9.03633C14.7943 8.33193 14.7943 7.14535 13.8358 6.44095C13.5718 6.2469 13.4333 6.23751 10.5155 6.21603C8.13262 6.19841 7.40596 6.22193 7.17285 6.32413ZM25.2063 7.39844C23.8484 7.70293 22.6755 8.21163 21.6309 8.94922C20.8972 9.46721 19.7766 10.613 19.289 11.3439L18.9177 11.9004H17.2857C15.7564 11.9004 15.633 11.9141 15.3221 12.1182C14.8448 12.4316 14.5134 13.1364 14.6011 13.651C14.6884 14.163 15.2221 14.7645 15.7078 14.8983C15.904 14.9522 16.438 14.9966 16.8945 14.9969L17.7246 14.9975V16.546V18.0946H16.4451C15.279 18.0946 15.137 18.1138 14.8428 18.3123C14.3754 18.6276 14.1454 18.9812 14.0898 19.4699C14.0261 20.0307 14.3158 20.6074 14.8163 20.9158C15.1646 21.1304 15.2912 21.145 17.0564 21.1748L18.9274 21.2063L19.5467 22.0353C22.2632 25.6716 27.1155 26.8221 31.2012 24.7984C32.4762 24.1668 33.8429 23.036 34.0765 22.4194C34.4027 21.5581 33.8358 20.5705 32.8979 20.3663C32.4112 20.2604 31.8688 20.4933 31.1773 21.1052C30.4592 21.7406 29.3021 22.3488 28.418 22.5558C27.6739 22.7299 26.2548 22.7044 25.4883 22.5032C24.7997 22.3225 23.7583 21.8171 23.291 21.4369L22.998 21.1987L23.78 21.1952C24.7656 21.1908 25.1477 21.0818 25.557 20.6886C26.1341 20.1343 26.1831 19.2783 25.6746 18.6376C25.2755 18.1347 25.0746 18.0946 22.956 18.0946H20.9998L20.9247 17.8284C20.8298 17.4922 20.826 15.3933 20.9198 15.1669C20.983 15.0142 21.1669 14.9975 22.7759 14.9975C23.7582 14.9975 24.7125 14.9547 24.8967 14.9023C25.3496 14.7735 25.8609 14.2615 25.9822 13.8153C26.1514 13.1925 25.8179 12.3851 25.2609 12.0692C25.1443 12.003 24.5654 11.927 23.9746 11.9004L22.9004 11.852L23.6401 11.363C24.6511 10.6948 25.4759 10.4341 26.7578 10.3777C28.5091 10.3006 29.9073 10.8009 31.2751 11.9938C31.981 12.6094 32.3479 12.7463 32.9786 12.629C33.4593 12.5396 34.0435 11.9607 34.1336 11.4843C34.2595 10.8193 34.1165 10.4649 33.4598 9.81399C32.4151 8.77869 30.8717 7.92108 29.2969 7.50084C28.4215 7.2672 26.0557 7.20807 25.2063 7.39844ZM36.3289 23.9222C35.6845 24.2475 35.4224 24.686 35.4699 25.3597C35.5146 25.9942 35.7765 26.4171 36.2677 26.6481C36.5536 26.7825 37.0379 26.8052 39.6243 26.8052C42.598 26.8052 42.6521 26.8017 42.9697 26.5874C43.4371 26.2722 43.6671 25.9185 43.7227 25.4299C43.7864 24.8691 43.4967 24.2924 42.9962 23.984C42.633 23.7602 42.5791 23.756 39.6973 23.7286C36.8104 23.7012 36.7611 23.704 36.3289 23.9222Z" fill="#3FF1B2"/>
</svg>
