<svg width="28" height="28" viewBox="0 0 28 28" fill="none" xmlns="http://www.w3.org/2000/svg">
<path fill-rule="evenodd" clip-rule="evenodd" d="M26.0672 26.0671H1.93278V1.93166H26.0672V26.0671ZM28 28H0V0H28V28ZM12.1633 12.8254C11.4462 12.8254 10.8628 13.4906 10.8628 14.3086V15H9V14.3086C9 12.4843 10.4193 11 12.1633 11H15.8378C17.5819 11 19 12.4843 19 14.3086V15H17.1383V14.3086C17.1383 13.4906 16.555 12.8254 15.8378 12.8254H12.1633ZM13 19V17H5V19H13ZM24 19H16V17H24V19ZM5 23H24V21H5V23ZM15.1975 6.99944C15.1975 6.3394 14.6602 5.80214 14 5.80214C13.3398 5.80214 12.8025 6.3394 12.8025 6.99944C12.8025 7.6606 13.3398 8.19786 14 8.19786C14.6602 8.19786 15.1975 7.6606 15.1975 6.99944ZM17 6.99944C17 8.65403 15.6549 10 14 10C12.3451 10 11 8.65403 11 6.99944C11 5.34597 12.3451 4 14 4C15.6549 4 17 5.34597 17 6.99944Z" fill="#FFA177"/>
</svg>
