<?xml version="1.0" encoding="utf-8" ?>
<svg xmlns="http://www.w3.org/2000/svg" xmlns:xlink="http://www.w3.org/1999/xlink" width="14" height="14">
	<path fill="#091A2E" transform="translate(0.291504 0.369507)" d="M6.964438 3.7163305L6.964438 5.2759833L7.3353744 4.7834635C9.2821121 2.6555138 12.84159 3.91102 12.999814 6.8079748L13 12.999994L10.214356 12.999994L10.214356 7.5133529C10.214356 6.6506252 9.2597713 5.9729462 8.4411268 6.037539C7.7685609 6.0906143 6.964438 6.7711172 6.964438 7.4762168L6.964438 12.999994L4.1787944 12.999994L4.1787944 3.7163305L6.964438 3.7163305ZM0.00033570567 13L2.7859797 13L2.7859797 3.716336L0.00033570567 3.716336L0.00033570567 13ZM0.36046562 2.335242C-0.29159793 1.6223216 -0.024157533 0.43519828 0.88201243 0.095271803C2.1208811 -0.36949378 3.2535982 0.95740473 2.5913022 2.1012988C2.1247067 2.9071798 0.98847973 3.0218573 0.36046562 2.335242" fill-rule="evenodd"/>
</svg>
