<?xml version="1.0" encoding="UTF-8"?>
<svg id="_Шар_1" data-name="Шар 1" xmlns="http://www.w3.org/2000/svg" viewBox="0 0 841.89 595.28">
  <defs>
    <style>
      .cls-1 {
        fill: #3471b7;
      }

      .cls-1, .cls-2, .cls-3, .cls-4, .cls-5, .cls-6, .cls-7, .cls-8, .cls-9 {
        stroke-width: 0px;
      }

      .cls-2 {
        fill: #32a7df;
      }

      .cls-3 {
        fill: #94d4e9;
      }

      .cls-4 {
        fill: #7acceb;
      }

      .cls-5 {
        fill: #2b5faa;
      }

      .cls-6 {
        fill: #fff;
      }

      .cls-7 {
        fill: #57b7e8;
      }

      .cls-8 {
        fill: #53baea;
      }

      .cls-9 {
        fill: #51b3e6;
      }
    </style>
  </defs>
  <path class="cls-6" d="m62.2,475.79c3.31-.32,4.29,1.56,6.78,1.51,9.22-.17,18.45-.54,27.65-.17,3.85.16,7.83,1.54,11.38,3.17,4.42,2.02,7.53,1,8.92-3.83,2.54-8.83-2.1-15.64-11.45-16.01-10.28-.41-20.58-.23-30.87-.32-5.81-.05-5.81-.07-6.38-5.91q-.87-8.89,7.87-8.82c9.76.07,19.54-.33,29.25.33,5.44.37,11.2,1.6,16.06,3.98,9.28,4.56,12.55,13.2,12.01,23.1-.57,10.52-4.96,18.76-15.54,22.55-.22.08-.37.37-.78.81,6.3,8.16,12.63,16.36,19.78,25.62-6.63,0-12.2.58-17.55-.27-2.33-.37-4.46-3.49-6.22-5.71-4.23-5.34-8.24-10.84-12.22-16.37-1.64-2.28-3.57-3.34-6.44-3.08-2.65.25-5.35.24-8.01.09-2.77-.16-3.8.87-3.73,3.68.15,6.01-.07,12.03.06,18.04.06,2.75-.9,3.68-3.7,3.73-11.07.19-11.06.28-11.05-10.76,0-2.81-.1-5.62.02-8.42.3-7.32.28-9.65.28-18.87-.83-.92-5.2-6.07-6.13-8.09Z"/>
  <path class="cls-6" d="m481.72,501.12c1.23,1.33,2.3,2.49,3.37,3.65,6.08,6.53,6.08,6.73-1.51,11.68-12.89,8.4-26.53,9.07-40.03,2.33-13.39-6.67-19.53-18.61-20.34-33.21-1.05-19.12,7.25-33.12,23.86-39.46,13.24-5.05,26.27-4,38.29,4.1,4.09,2.75,4.16,3.68,1,7.55-1.93,2.38-3.61,6.07-6.01,6.64-2.27.54-5.29-2.29-8.05-3.49-8.71-3.78-17.32-3.76-25.09,2.04-8.35,6.23-10.02,15.29-8.4,24.87,3.65,21.61,24.02,24.48,37.75,16.76,1.62-.91,3.09-2.07,5.15-3.46Z"/>
  <path class="cls-6" d="m547.02,496.23c-.23,15.67-11.3,26.31-27.22,26.17-17.17-.15-27.85-10.93-27.65-27.89.18-15.23,12.17-26.51,27.91-26.26,16.13.26,27.2,11.75,26.97,27.97Zm-26.91,14.15c8.28-.05,13.81-6,13.77-14.8-.04-8.5-5.93-14.49-14.24-14.51-8.4-.01-13.96,6-13.97,15.09,0,8.38,5.98,14.27,14.45,14.22Z"/>
  <path class="cls-6" d="m187.61,513.12c-2.51,1.98-4.35,3.71-6.45,5.02-11.42,7.16-28.94,4.52-36.09-5.33-8.72-12.02-7.61-30.26,2.67-38.79,8.12-6.74,17.52-7.49,27.21-4.08,9.81,3.45,14.18,11.2,15.47,21.05,1.15,8.78,1.12,8.74-7.55,8.66-8.42-.08-16.83-.09-25.25-.11-1.45,0-2.89.15-4.77.25-.12,4.22,2.14,6.79,5.06,8.65,7.92,5.06,15.05,2.29,21.21-2.65,2.84,2.45,5.33,4.59,8.5,7.32Zm-10.28-22.99c-1.43-7.52-6.64-11.02-14.29-10.18-5.86.64-9.85,4.7-9.71,10.18h24Z"/>
  <path class="cls-6" d="m673.57,499.73c.13,5.52,3.67,8.14,7.53,9.88,6.99,3.16,13.28.99,19.15-4.05,1.11.95,2.2,1.86,3.27,2.79,5.66,4.95,5.61,5.43-.83,9.52-15.35,9.74-36.07,3.34-41.06-13.11-3.03-9.96-1.64-19.64,5.2-27.99,6.25-7.64,17.17-10.62,26.98-7.54,9.95,3.13,16.23,10.67,17.11,20.98,1.03,12,.86,9.52-8.57,9.52-8.55,0-17.1-.27-25.66-.39-.91-.01-1.82.21-3.12.38Zm1.09-10.02h22.84c-.34-5.87-5.04-9.88-11.18-9.86-6.55.02-11.26,3.86-11.66,9.86Z"/>
  <path class="cls-6" d="m315.68,519.9c-5.1.73-10.19,2.09-15.26,2.03-9.61-.11-16.64-6.58-17.24-16.14-.7-11.32-.52-22.7-.55-34.06,0-.83,1.38-1.71,2.2-2.47.22-.2.77-.03,1.18-.04q10.41-.32,10.42,10.01c0,6.95-.02,13.9.08,20.85.05,3.8,1.1,7.26,4.98,8.86,4.49,1.85,9.13,2.01,12.7-1.63,1.56-1.59,2.47-4.45,2.53-6.76.25-9.08.18-18.18-.05-27.26-.08-3.11.68-4.22,3.96-4.16,10.05.17,10.06.04,10.05,10.05-.01,12.3-.02,24.59-.08,36.89-.03,5.55-.09,5.55-5.49,5.56-1.47,0-2.99.21-4.4-.08-1.82-.37-3.55-1.16-5.02-1.66Z"/>
  <path class="cls-6" d="m623.39,470.74c6.55-3.61,14.12-3.77,21.72-.06,5.06,2.47,8.38,6.63,8.62,12.17.54,12.13.48,24.28.67,36.43,0,.27.06.62-.08.78-3.19,3.68-7.4,1.19-11.11,1.64-.66.08-2.27-1.98-2.29-3.07-.21-8.94-.06-17.9-.19-26.84-.12-7.99-4.16-11.57-11.94-10.83-4.78.45-6.91,2.61-6.92,7.54-.02,9.62,0,19.24.28,28.85.1,3.55-1.06,4.83-4.58,4.52-2.87-.25-5.79-.05-9.34-.05,0-7.67.01-14.72,0-21.77-.02-8.82.07-17.63-.15-26.44-.08-3.17.96-4.42,4.08-4.24,1.86.11,3.75-.26,5.6-.07,1.64.17,3.23.81,5.64,1.45Z"/>
  <path class="cls-6" d="m553.39,495.6c0-7.48.1-14.96-.05-22.44-.06-2.97,1.06-4.33,3.97-3.86,3.25.53,6.91-1.72,9.84,1.48.27.29,1.68-.28,2.46-.66,5.33-2.56,10.91-2.54,16.46-1.33,7.43,1.62,12.42,7.08,12.78,14.99.53,11.73.36,23.5.47,35.25,0,.53-.06,1.5-.18,1.52-3.57.44-7.17,1.01-10.74.95-.78-.01-2.16-2.35-2.19-3.65-.22-9.08.03-18.17-.23-27.24-.21-7.32-5.15-11.2-11.93-9.88-4.82.94-6.91,3.31-6.94,8.23-.05,9.48-.13,18.97.1,28.45.08,3.56-1.11,4.58-4.6,4.51-9.19-.16-9.2-.01-9.19-9.08,0-5.74,0-11.49,0-17.23h-.04Z"/>
  <path class="cls-6" d="m743.7,468.04c5.45-.47,10.88,1.93,16.1,5.16,2.8,1.74,3.16,3.74,1.14,6.26-.33.42-.62.87-.96,1.29-3.96,4.92-4.88,5.12-10.53,2.3-5.91-2.95-12.06-2.34-16.45,1.63-4.07,3.68-5.54,10.74-3.4,16.32,3.27,8.52,14.15,11.54,22.19,6.17,3.12-2.08,4.97-1.26,8.86,3.4,2.42,2.9-.16,4.05-1.69,5.43-8.8,7.93-23.2,8.5-33.51,1.42-9.2-6.31-13.35-20.06-9.32-30.84,4.51-12.08,13.76-18.5,27.56-18.54Z"/>
  <path class="cls-6" d="m234.28,504.94c2.89,2.57,5.64,5.02,9.24,8.24-3.83,2.63-6.77,5.56-10.31,6.92-10.55,4.06-20.84,3.4-29.67-4.36-8.29-7.28-10.19-16.93-7.51-27.1,2.94-11.16,10.6-18.02,22.17-19.99,8.27-1.41,15.9.48,22.93,5.02,2.71,1.75,2.75,3.72.76,5.94-1.16,1.29-2.45,2.46-3.75,3.61-2.25,1.99-4.12,2.91-7.18.43-5.13-4.17-13.68-3.16-18.04,1.33-4.84,4.99-5.64,13.61-1.79,19.26,3.64,5.34,11.34,7.6,17.08,4.8,2-.97,3.74-2.5,6.07-4.1Z"/>
  <path class="cls-6" d="m365.96,451.99c3.87.5,8.11.9,12.27,1.71.94.18,2.16,1.77,2.27,2.81.31,2.9.21,5.87.06,8.8-.12,2.51.71,3.83,3.39,3.57.39-.04.8.03,1.2.05,7.89.25,9.4,2.14,7.49,10-.23.94-1.89,2.04-2.99,2.17-2.74.31-5.54.1-8.81.1,0,8.17-.29,16.13.13,24.06.19,3.58,3.51,4.13,6.46,3.42,3.2-.77,3.93.45,4.06,3.39.47,10.62.11,11.04-10.61,10.02-8.23-.79-13.56-6.25-13.92-14.8-.31-7.33-.19-14.68-.26-22.03-.02-2.24.29-4.24-2.93-5.21-1.14-.34-1.55-4.04-1.72-6.26-.08-1.04,1.16-2.2,1.84-3.29.67-1.07,1.93-2.08,1.98-3.16.21-5.02.09-10.06.09-15.37Z"/>
  <path class="cls-6" d="m765.6,452.11c4.69.6,8.92,1,13.07,1.81.77.15,1.61,1.91,1.74,3,.32,2.78.33,5.6.33,8.4,0,2.52,1.1,3.69,3.65,3.52,1.2-.08,2.42.14,3.6-.03,3.75-.53,5.18.75,5.11,4.78-.17,9.62-.22,7.69-7.83,7.52-3.57-.08-5.04.65-4.82,4.53.3,5.32-.06,10.68,0,16.03.07,5.87,1.55,7.4,7.24,6.51,3.66-.57,4.42.74,4.43,3.92.05,11.11,1.71,10.39-10.23,9.93-9.05-.35-14.74-6.49-15.02-16-.45-15.62-.56-31.25-.85-46.88-.04-2.11-.26-4.22-.44-7.03Z"/>
  <path class="cls-6" d="m261.5,471.57c3.72-1.02,7.86-2.29,12.06-3.27,2.96-.69,4.25.78,3.82,3.77-.02.13,0,.27,0,.4-.13,2.92.78,6.73-.72,8.5-1.29,1.53-5.32.8-8.14.97-4.62.28-7.02,2.56-7.08,7.41-.12,9.48-.15,18.96.03,28.44.06,3.22-1.06,4.07-4.16,4.04-9.22-.1-9.22.02-9.28-8.99-.1-13.08-.11-26.17-.39-39.25-.06-3.01.93-4.14,3.79-4.12,1.73.02,3.53-.5,5.18-.17,1.65.33,3.15,1.43,4.9,2.28Z"/>
  <path class="cls-6" d="m353.23,469.45c0,2.11,0,4.07,0,6.02.04,13.88,0,27.77.17,41.65.04,3.54-.94,4.94-4.76,4.84-9.05-.24-9.02-.05-9.04-9.21-.02-13.35-.02-26.7-.19-40.05-.03-2.5.72-3.36,3.15-3.28,3.43.12,6.88.03,10.68.03Z"/>
  <path class="cls-6" d="m345.7,464.63c-5.04-.08-8.76-3.7-8.71-8.48.05-4.92,4.02-8.73,9.08-8.73,4.4,0,8.27,4.04,8.27,8.62,0,4.89-3.8,8.66-8.64,8.59Z"/>
  <g>
    <polygon class="cls-3" points="560.3 187.38 471.79 253.42 522.85 273.51 560.3 187.38"/>
    <polygon class="cls-8" points="300.21 187.38 354.17 187.38 560.3 187.38 471.79 253.42 300.21 187.38"/>
    <polygon class="cls-1" points="344.47 310.96 344.47 294.62 300.21 187.38 471.79 253.42 346.51 310.96 344.47 310.96"/>
    <path class="cls-9" d="m354.68,87.72v99.66h31.32v-99.66s1.28-15.79-15.79-15.79-15.53,15.79-15.53,15.79Z"/>
    <path class="cls-4" d="m473.91,87.72v99.66h31.32v-99.66s1.28-15.79-15.79-15.79-15.53,15.79-15.53,15.79Z"/>
    <path class="cls-7" d="m344.47,310.96h2.04l125.28-57.53,51.06,20.09-5.79,11.57v64.34s-1.53,28.6-28.6,28.6h0c-1.24,0-2.47-.19-3.66-.55l-140.66-43.49v-3.96l161.81,27.06v-41.36l-161.49-4.77Z"/>
    <path class="cls-5" d="m487.36,378.02h-104.09s-39.13-.13-39.13-39.13v-4.91l143.21,44.04Z"/>
  </g>
  <path class="cls-2" d="m61.69,475.79l6.64,8.09h37.62s5.87-.17,8.09-3.23l-9.79-4.85h-42.55Z"/>
</svg>