<svg width="194" height="66" viewBox="0 0 194 66" fill="none" xmlns="http://www.w3.org/2000/svg">
<path fill-rule="evenodd" clip-rule="evenodd" d="M101.873 23.2981H105.709V41.0862H102.12L92.2565 29.1913H92.2017C92.2017 29.1913 92.4486 31.9216 92.4486 33.2734V41.0862H88.6128V23.2981H92.2565L102.065 35.1389H102.12C102.12 35.1389 101.873 32.3812 101.873 31.3543V23.2981ZM126.667 23.2981V34.0302C126.667 39.0586 122.886 41.4105 118.311 41.4105C113.708 41.4105 109.927 39.0586 109.927 34.0302V23.2981H113.763V33.8951C113.763 36.4636 115.242 38.0584 118.311 38.0584C121.324 38.0584 122.831 36.4636 122.831 33.8951V23.2981H126.667ZM134.721 33.0033V38.1122H138.666C140.995 38.1122 142.008 37.3825 142.008 35.6253C142.008 34.0302 141.159 33.0033 138.749 33.0033H134.721ZM139.159 30.5972C140.173 30.5972 141.022 29.7051 141.022 28.4345C141.022 27.0286 140.255 26.2718 138.036 26.2718H134.721V30.5972H139.159ZM142.693 31.1377C144.721 31.8407 145.899 33.4087 145.899 35.7062C145.899 38.7343 143.79 41.0862 139.104 41.0862H130.885V23.2981H138.556C143.077 23.2981 144.748 25.3255 144.748 27.8666C144.748 29.0292 144.447 30.2456 142.693 31.0568V31.1377ZM151.761 32.1111C151.761 35.8689 154.254 37.9775 157.515 37.9775C160.775 37.9775 163.268 35.8689 163.268 32.1111C163.268 28.7046 160.802 26.4068 157.515 26.4068C154.254 26.4068 151.761 28.7046 151.761 32.1111ZM167.323 32.0837C167.323 37.4363 163.377 41.4104 157.515 41.4104C151.898 41.4104 147.707 37.7071 147.707 32.0837C147.707 26.9206 151.925 22.9735 157.515 22.9735C163.076 22.9735 167.323 26.9206 167.323 32.0837ZM169.35 39.9777L170.171 36.869C171.596 37.5178 173.897 38.2475 176.117 38.2475C178.911 38.2475 180.117 37.112 180.117 35.6794C180.117 35.0035 179.788 34.463 179.157 34.1387C178.528 33.8141 177.185 33.5975 175.596 33.4087C173.815 33.2192 172.418 32.8949 171.35 32.3002C169.733 31.4081 169.13 29.8942 169.13 28.3803C169.13 25.2442 172.062 22.9735 176.418 22.9735C178.966 22.9735 181.13 23.4873 182.802 24.244L181.925 27.2448C180.61 26.7043 178.445 26.1638 176.528 26.1638C173.815 26.1638 172.966 27.2989 172.966 28.3803C172.966 28.9482 173.185 29.4887 173.952 29.8671C174.692 30.1913 175.87 30.3267 177.404 30.543C179.076 30.7593 180.61 31.0838 181.569 31.6244C183.13 32.4894 183.87 33.8683 183.87 35.6526C183.87 38.8964 181.35 41.4104 176.418 41.4104C173.541 41.4104 171.185 40.8699 169.35 39.9777Z" fill="white"/>
<path fill-rule="evenodd" clip-rule="evenodd" d="M26.1252 54.7453C23.3643 55.7195 20.7547 55.9789 18.1427 55.5531C13.4776 54.7847 10.3675 50.6735 10.2198 45.0791C10.078 39.6355 11.5508 34.4415 14.9981 28.238C16.3362 25.8299 18.0569 23.4261 20.2602 20.8911C21.3398 19.6504 22.8126 18.9384 24.3045 18.9384C25.5306 18.9384 26.6865 19.4234 27.5587 20.3074C29.8895 22.669 30.3161 26.3389 28.5931 29.2292L28.4441 29.4773C26.6543 32.4775 24.8038 35.5807 23.487 39.1124C22.672 41.2964 22.1548 43.4309 21.9058 45.6346C21.6198 48.1738 22.2311 50.6199 23.6265 52.5275C24.3224 53.4749 25.1755 54.2278 26.1252 54.7453ZM34.1447 36.8002C34.3139 35.6639 34.4819 34.5247 34.6214 33.3841L34.7929 32.0475L34.7941 32.0405C35.1826 29.043 35.583 25.9441 34.986 22.7324C34.1519 18.2377 32.0213 15.0499 28.7611 13.3694C29.3926 12.9126 30.1505 12.412 31.018 11.9186C33.6002 10.4424 36.1264 9.50063 38.7467 9.03819C41.0822 8.62227 43.015 8.68572 44.8524 9.2398C48.8824 10.4467 51.4503 14.2604 51.5516 19.1936C51.6779 25.2801 50.9773 31.2368 50.1157 37.8421L50.055 38.3948C50.0013 38.9066 50.1431 39.4663 50.4279 39.854C50.7127 40.2404 51.1596 40.4758 51.5909 40.4758C52.3655 40.4758 53.3712 39.6299 54.5866 37.9648C55.2611 37.0371 55.8676 36.0897 56.3812 35.2747C58.8514 31.3623 61.5861 26.7224 62.7586 21.1477C63.7059 16.6389 62.8611 13.1508 60.2503 10.7808C59.8058 10.3776 59.328 10.0477 58.8156 9.78825C62.3582 8.5123 65.4469 8.42066 68.5641 9.47948C72.2199 10.7244 74.6496 14.579 74.7485 19.3022C74.8724 24.8952 73.3639 30.3289 70.1323 35.9134C64.6521 45.3935 57.9732 51.5053 49.713 54.5958C46.1561 55.9281 43.0567 56.1439 40.1099 55.2669C36.174 54.1009 33.5346 50.1857 33.3892 45.292C33.3034 42.4736 33.711 39.7243 34.1423 36.8186L34.1447 36.8059V36.8002Z" fill="#3FF1B2"/>
</svg>
