<?xml version="1.0" encoding="utf-8" ?>
<svg xmlns="http://www.w3.org/2000/svg" xmlns:xlink="http://www.w3.org/1999/xlink" width="93" height="19">
	<path fill="white" transform="translate(0 9.53674e-07)" d="M12.946019 0.31694886L16.690948 0.31694886L16.690948 17.68354L13.187126 17.68354L3.5574019 6.0704584L3.5038226 6.0704584C3.5038226 6.0704584 3.7449296 8.7360659 3.7449296 10.055817L3.7449296 17.68354L-3.0198066e-14 17.68354L-3.0198066e-14 0.31694886L3.5574019 0.31694886L13.133547 11.877163L13.187126 11.877163C13.187126 11.877163 12.946019 9.1847944 12.946019 8.1822538L12.946019 0.31694886ZM37.152657 0.31694886L37.152657 10.794667C37.152657 15.703916 33.461308 18.000097 28.994381 18.000097C24.500664 18.000097 20.809313 15.703916 20.809313 10.794667L20.809313 0.31694886L24.553913 0.31694886L24.553913 10.662823C24.553913 13.170479 25.998569 14.727484 28.994381 14.727484C31.936281 14.727484 33.40773 13.170479 33.40773 10.662823L33.40773 0.31694886L37.152657 0.31694886ZM45.015621 9.7921276L45.015621 14.780025L48.867046 14.780025C51.140862 14.780025 52.130424 14.067609 52.130424 12.351998C52.130424 10.794667 51.30127 9.7921276 48.947746 9.7921276L45.015621 9.7921276ZM49.348602 7.4430766C50.338165 7.4430766 51.16732 6.5720549 51.16732 5.3316073C51.16732 3.9589889 50.418533 3.2201378 48.251877 3.2201378L45.015621 3.2201378L45.015621 7.4430766L49.348602 7.4430766ZM52.799175 7.9707808C54.778633 8.6570902 55.928604 10.187987 55.928604 12.430975C55.928604 15.387359 53.869438 17.68354 49.295021 17.68354L41.270691 17.68354L41.270691 0.31694886L48.76022 0.31694886C53.173569 0.31694886 54.805424 2.2962475 54.805424 4.7771425C54.805424 5.9121799 54.511066 7.0997591 52.799175 7.8918047L52.799175 7.9707808ZM61.652065 8.921073C61.652065 12.589873 64.086288 14.648475 67.269295 14.648475C70.451973 14.648475 72.886192 12.589873 72.886192 8.921073C72.886192 5.5952635 70.479095 3.3519497 67.269295 3.3519497C64.086288 3.3519497 61.652065 5.5952635 61.652065 8.921073M76.845108 8.8943119C76.845108 14.120118 72.993019 18.000065 67.269295 18.000065C61.786015 18.000065 57.693481 14.384459 57.693481 8.8943119C57.693481 3.8535461 61.812473 3.2634769e-05 67.269295 3.2634769e-05C72.698997 3.2634769e-05 76.845108 3.8535461 76.845108 8.8943119M78.823738 16.601307L79.626106 13.566273C81.016853 14.199714 83.26355 14.912131 85.430534 14.912131C88.158775 14.912131 89.335541 13.803528 89.335541 12.404801C89.335541 11.744926 89.014725 11.217222 88.399223 10.900665C87.784386 10.583781 86.473679 10.372309 84.922188 10.187922C83.18351 10.002883 81.81955 9.6863251 80.776405 9.1057529C79.198135 8.2347307 78.609756 6.7567024 78.609756 5.2786736C78.609756 2.2168798 81.471619 1.7763568e-15 85.724556 1.7763568e-15C88.212357 1.7763568e-15 90.325104 0.50159639 91.956955 1.2404475L91.101341 4.1700706C89.817093 3.6423664 87.704018 3.1146622 85.831718 3.1146622C83.18351 3.1146622 82.354355 4.222939 82.354355 5.2786736C82.354355 5.8331385 82.568336 6.3608427 83.317459 6.730268C84.039452 7.0468254 85.189758 7.1789961 86.687332 7.3901434C88.319183 7.6012902 89.817093 7.9181738 90.753403 8.445878C92.278099 9.2904654 93.000099 10.63665 93.000099 12.378694C93.000099 15.545571 90.539421 18.000032 85.724556 18.000032C82.916275 18.000032 80.615997 17.472328 78.823738 16.601307" fill-rule="evenodd"/>
</svg>
