<svg width="50" height="48" viewBox="0 0 50 48" fill="none" xmlns="http://www.w3.org/2000/svg">
<path fill-rule="evenodd" clip-rule="evenodd" d="M24.1913 0.117944C23.589 0.343548 23.1359 0.674467 22.8482 1.09876C22.6963 1.3227 21.2819 4.53323 19.705 8.23324C16.8624 14.9031 16.8353 14.961 16.535 15.0095C16.3684 15.0364 13.0209 15.3476 9.09603 15.7011C1.4362 16.391 1.52578 16.3769 0.821236 16.9961C0.258108 17.4908 -0.00233146 18.1192 1.572e-05 18.9768C0.0024607 19.8818 0.187693 20.2675 0.992287 21.0438C1.30573 21.3463 3.74074 23.4994 6.40333 25.8282C9.06591 28.1572 11.3651 30.1785 11.5127 30.3201L11.781 30.5775L10.1589 37.6724C8.46093 45.0988 8.37946 45.5802 8.69261 46.3279C9.19354 47.524 10.4233 48.1999 11.6387 47.9474C12.2047 47.8299 12.453 47.688 19.8477 43.2574C22.4816 41.6792 24.7272 40.3467 24.8378 40.2962C25.0059 40.2196 26.0485 40.8093 31.1978 43.8935C34.5853 45.9224 37.5516 47.6702 37.7898 47.7775C38.0748 47.9059 38.4334 47.9726 38.8395 47.9726C40.3217 47.9726 41.4619 46.8252 41.4412 45.3544C41.4358 44.9702 40.8716 42.3127 39.8102 37.6711L38.1875 30.5751L38.799 30.0269C39.1354 29.7254 41.6331 27.5298 44.3494 25.1476C47.0658 22.7655 49.4095 20.6379 49.5576 20.4198C50.495 19.0387 49.8777 17.0736 48.32 16.4799C48.0478 16.3761 45.5546 16.1117 40.5541 15.6562C36.5033 15.2872 33.1713 14.9674 33.1495 14.9456C33.1277 14.9238 31.8255 11.891 30.2556 8.20593C28.6857 4.5209 27.2647 1.31262 27.0978 1.07644C26.4949 0.222867 25.1208 -0.230201 24.1913 0.117944ZM27.7585 10.3467C29.247 13.8363 30.5754 16.8415 30.7106 17.0249C31.0005 17.4182 31.6326 17.8632 32.0753 17.9854C32.2486 18.0334 35.4774 18.3524 39.2502 18.6945C43.023 19.0365 46.1098 19.3438 46.1098 19.3774C46.1098 19.4109 43.8544 21.4141 41.0976 23.829C38.341 26.2438 35.9356 28.3745 35.7525 28.5638C35.2729 29.0599 35.0632 29.5875 35.0607 30.3047C35.0591 30.7454 35.4792 32.7701 36.5725 37.5902C37.4052 41.2614 38.0729 44.2789 38.0562 44.2956C38.0394 44.3123 35.4107 42.7565 32.2145 40.8381C29.0183 38.9197 26.1938 37.2683 25.9377 37.1681C25.3869 36.9527 24.6687 36.9335 24.1418 37.1203C23.9333 37.1941 21.1044 38.8464 17.8554 40.792C14.6064 42.7377 11.9332 44.3145 11.9149 44.2963C11.8967 44.278 12.5635 41.2567 13.3968 37.5822C14.4812 32.8008 14.9113 30.7297 14.9097 30.2978C14.9071 29.5632 14.6807 29.0214 14.16 28.5039C13.9521 28.2972 11.5496 26.1709 8.82122 23.7786C6.09281 21.3863 3.86054 19.4033 3.86054 19.3719C3.86054 19.3406 6.94729 19.0354 10.7199 18.6938C14.4926 18.3522 17.7213 18.0335 17.8948 17.9855C18.3346 17.8639 18.9692 17.4192 19.2542 17.0325C19.3862 16.8535 20.7143 13.8483 22.2056 10.3544C23.697 6.86043 24.9475 4.00176 24.9846 4.00176C25.0217 4.00176 26.2699 6.857 27.7585 10.3467Z" fill="#80B8FF"/>
</svg>
